G75*
G70*
%OFA0B0*%
%FSLAX24Y24*%
%IPPOS*%
%LPD*%
%AMOC8*
5,1,8,0,0,1.08239X$1,22.5*
%
%ADD10OC8,0.0630*%
%ADD11C,0.0630*%
%ADD12OC8,0.0480*%
%ADD13R,0.0945X0.0945*%
%ADD14R,0.2950X0.4250*%
%ADD15R,0.0850X0.0420*%
%ADD16R,0.0700X0.1300*%
%ADD17C,0.1227*%
%ADD18C,0.0270*%
%ADD19C,0.0100*%
%ADD20C,0.0320*%
%ADD21C,0.0400*%
D10*
X004350Y001050D03*
X005350Y001050D03*
X006350Y001050D03*
X007350Y001050D03*
X008350Y001050D03*
X008350Y002050D03*
X007350Y002050D03*
X006350Y002050D03*
X005350Y002050D03*
X004350Y002050D03*
X004450Y009350D03*
D11*
X004450Y007950D03*
D12*
X003150Y006750D03*
X003150Y005750D03*
D13*
X003150Y004634D03*
X003150Y002666D03*
D14*
X009450Y005050D03*
D15*
X005170Y005050D03*
X005170Y004050D03*
X005170Y006050D03*
D16*
X006975Y008650D03*
X009525Y008650D03*
D17*
X001150Y006250D03*
X001150Y004250D03*
D18*
X008250Y004250D03*
X008250Y003850D03*
X008650Y003850D03*
X008650Y004250D03*
X009050Y004250D03*
X009050Y003850D03*
X009450Y003850D03*
X009450Y004250D03*
X009850Y004250D03*
X009850Y003850D03*
X009850Y003450D03*
X009450Y003450D03*
X009050Y003450D03*
X008650Y003450D03*
X008250Y003450D03*
X008250Y003050D03*
X008650Y003050D03*
X009050Y003050D03*
X009450Y003050D03*
X009850Y003050D03*
X010250Y003050D03*
X010650Y003050D03*
X010650Y003450D03*
X010250Y003450D03*
X010250Y003850D03*
X010250Y004250D03*
X010650Y004250D03*
X010650Y003850D03*
X010650Y004650D03*
X010250Y004650D03*
X010250Y005050D03*
X010650Y005050D03*
X010650Y005450D03*
X010250Y005450D03*
X010250Y005850D03*
X010650Y005850D03*
X010650Y006250D03*
X010650Y006650D03*
X010250Y006650D03*
X010250Y006250D03*
X009850Y006250D03*
X009850Y006650D03*
X009450Y006650D03*
X009450Y006250D03*
X009050Y006250D03*
X009050Y006650D03*
X008650Y006650D03*
X008650Y006250D03*
X008250Y006250D03*
X008250Y006650D03*
X008250Y007050D03*
X008650Y007050D03*
X009050Y007050D03*
X009450Y007050D03*
X009850Y007050D03*
X010250Y007050D03*
X010650Y007050D03*
X009850Y005850D03*
X009450Y005850D03*
X009050Y005850D03*
X008650Y005850D03*
X008250Y005850D03*
X008250Y005450D03*
X008650Y005450D03*
X009050Y005450D03*
X009450Y005450D03*
X009850Y005450D03*
X009850Y005050D03*
X009450Y005050D03*
X009050Y005050D03*
X008650Y005050D03*
X008250Y005050D03*
X008250Y004650D03*
X008650Y004650D03*
X009050Y004650D03*
X009450Y004650D03*
X009850Y004650D03*
D19*
X000584Y000684D02*
X000437Y000887D01*
X000360Y001125D01*
X000350Y001250D01*
X000350Y009250D01*
X000360Y009375D01*
X000437Y009613D01*
X000584Y009816D01*
X000787Y009963D01*
X001025Y010040D01*
X001150Y010050D01*
X011650Y010050D01*
X011775Y010040D01*
X012013Y009963D01*
X012216Y009816D01*
X012363Y009613D01*
X012440Y009375D01*
X012450Y009250D01*
X012450Y001250D01*
X012440Y001125D01*
X012363Y000887D01*
X012216Y000684D01*
X012013Y000537D01*
X011775Y000460D01*
X011650Y000450D01*
X001150Y000450D01*
X001025Y000460D01*
X000787Y000537D01*
X000584Y000684D01*
X000640Y000644D02*
X004098Y000644D01*
X004157Y000585D02*
X003885Y000857D01*
X003885Y001010D01*
X004310Y001010D01*
X004310Y001090D01*
X004310Y001515D01*
X004157Y001515D01*
X003885Y001243D01*
X003885Y001090D01*
X004310Y001090D01*
X004390Y001090D01*
X004390Y001515D01*
X004543Y001515D01*
X004815Y001243D01*
X004815Y001090D01*
X004390Y001090D01*
X004390Y001010D01*
X004815Y001010D01*
X004815Y000857D01*
X004543Y000585D01*
X004390Y000585D01*
X004390Y001010D01*
X004310Y001010D01*
X004310Y000585D01*
X004157Y000585D01*
X004310Y000644D02*
X004390Y000644D01*
X004390Y000743D02*
X004310Y000743D01*
X004310Y000841D02*
X004390Y000841D01*
X004390Y000940D02*
X004310Y000940D01*
X004310Y001038D02*
X002112Y001038D01*
X002154Y001080D02*
X001920Y000846D01*
X001615Y000720D01*
X001285Y000720D01*
X000980Y000846D01*
X000746Y001080D01*
X000620Y001385D01*
X000620Y001715D01*
X000746Y002020D01*
X000980Y002254D01*
X001285Y002380D01*
X001615Y002380D01*
X001920Y002254D01*
X002154Y002020D01*
X002280Y001715D01*
X002280Y001385D01*
X002154Y001080D01*
X002177Y001137D02*
X003885Y001137D01*
X003885Y001235D02*
X002218Y001235D01*
X002259Y001334D02*
X003976Y001334D01*
X004074Y001432D02*
X002280Y001432D01*
X002280Y001531D02*
X010520Y001531D01*
X010520Y001629D02*
X008530Y001629D01*
X008526Y001625D02*
X008775Y001874D01*
X008775Y002226D01*
X008526Y002475D01*
X008174Y002475D01*
X008059Y002360D01*
X007641Y002360D01*
X007526Y002475D01*
X007174Y002475D01*
X007059Y002360D01*
X006641Y002360D01*
X006526Y002475D01*
X006174Y002475D01*
X006059Y002360D01*
X005641Y002360D01*
X005526Y002475D01*
X005174Y002475D01*
X005059Y002360D01*
X004641Y002360D01*
X004526Y002475D01*
X004174Y002475D01*
X004059Y002360D01*
X003894Y002360D01*
X003732Y002522D01*
X003732Y002958D01*
X004395Y003780D01*
X004649Y003780D01*
X004699Y003730D01*
X005641Y003730D01*
X005705Y003794D01*
X005705Y004306D01*
X005641Y004370D01*
X004699Y004370D01*
X004649Y004320D01*
X004305Y004320D01*
X004290Y004324D01*
X004251Y004320D01*
X004212Y004320D01*
X004198Y004314D01*
X004184Y004313D01*
X004149Y004294D01*
X004113Y004279D01*
X004102Y004268D01*
X004089Y004261D01*
X004065Y004231D01*
X004037Y004203D01*
X004031Y004189D01*
X003273Y003248D01*
X002632Y003248D01*
X002568Y003184D01*
X002568Y002148D01*
X002632Y002083D01*
X003294Y002083D01*
X003503Y001874D01*
X003590Y001787D01*
X003704Y001740D01*
X004059Y001740D01*
X004174Y001625D01*
X004526Y001625D01*
X004641Y001740D01*
X005059Y001740D01*
X005174Y001625D01*
X005526Y001625D01*
X005641Y001740D01*
X006059Y001740D01*
X006174Y001625D01*
X006526Y001625D01*
X006641Y001740D01*
X007059Y001740D01*
X007174Y001625D01*
X007526Y001625D01*
X007641Y001740D01*
X008059Y001740D01*
X008174Y001625D01*
X008526Y001625D01*
X008543Y001515D02*
X008390Y001515D01*
X008390Y001090D01*
X008815Y001090D01*
X008815Y001243D01*
X008543Y001515D01*
X008626Y001432D02*
X010520Y001432D01*
X010520Y001385D02*
X010646Y001080D01*
X010880Y000846D01*
X011185Y000720D01*
X011515Y000720D01*
X011820Y000846D01*
X012054Y001080D01*
X012180Y001385D01*
X012180Y001715D01*
X012054Y002020D01*
X011820Y002254D01*
X011515Y002380D01*
X011185Y002380D01*
X010880Y002254D01*
X010646Y002020D01*
X010520Y001715D01*
X010520Y001385D01*
X010541Y001334D02*
X008724Y001334D01*
X008815Y001235D02*
X010582Y001235D01*
X010623Y001137D02*
X008815Y001137D01*
X008815Y001010D02*
X008390Y001010D01*
X008390Y001090D01*
X008310Y001090D01*
X008310Y001515D01*
X008157Y001515D01*
X007885Y001243D01*
X007885Y001090D01*
X008310Y001090D01*
X008310Y001010D01*
X008390Y001010D01*
X008390Y000585D01*
X008543Y000585D01*
X008815Y000857D01*
X008815Y001010D01*
X008815Y000940D02*
X010787Y000940D01*
X010688Y001038D02*
X008390Y001038D01*
X008310Y001038D02*
X007390Y001038D01*
X007390Y001010D02*
X007390Y001090D01*
X007815Y001090D01*
X007815Y001243D01*
X007543Y001515D01*
X007390Y001515D01*
X007390Y001090D01*
X007310Y001090D01*
X007310Y001515D01*
X007157Y001515D01*
X006885Y001243D01*
X006885Y001090D01*
X007310Y001090D01*
X007310Y001010D01*
X007390Y001010D01*
X007815Y001010D01*
X007815Y000857D01*
X007543Y000585D01*
X007390Y000585D01*
X007390Y001010D01*
X007390Y000940D02*
X007310Y000940D01*
X007310Y001010D02*
X007310Y000585D01*
X007157Y000585D01*
X006885Y000857D01*
X006885Y001010D01*
X007310Y001010D01*
X007310Y001038D02*
X006390Y001038D01*
X006390Y001010D02*
X006390Y001090D01*
X006310Y001090D01*
X006310Y001515D01*
X006157Y001515D01*
X005885Y001243D01*
X005885Y001090D01*
X006310Y001090D01*
X006310Y001010D01*
X005885Y001010D01*
X005885Y000857D01*
X006157Y000585D01*
X006310Y000585D01*
X006310Y001010D01*
X006390Y001010D01*
X006815Y001010D01*
X006815Y000857D01*
X006543Y000585D01*
X006390Y000585D01*
X006390Y001010D01*
X006390Y000940D02*
X006310Y000940D01*
X006310Y001038D02*
X005390Y001038D01*
X005390Y001010D02*
X005390Y001090D01*
X005310Y001090D01*
X005310Y001515D01*
X005157Y001515D01*
X004885Y001243D01*
X004885Y001090D01*
X005310Y001090D01*
X005310Y001010D01*
X004885Y001010D01*
X004885Y000857D01*
X005157Y000585D01*
X005310Y000585D01*
X005310Y001010D01*
X005390Y001010D01*
X005815Y001010D01*
X005815Y000857D01*
X005543Y000585D01*
X005390Y000585D01*
X005390Y001010D01*
X005390Y000940D02*
X005310Y000940D01*
X005310Y001038D02*
X004390Y001038D01*
X004390Y001137D02*
X004310Y001137D01*
X004310Y001235D02*
X004390Y001235D01*
X004390Y001334D02*
X004310Y001334D01*
X004310Y001432D02*
X004390Y001432D01*
X004626Y001432D02*
X005074Y001432D01*
X004976Y001334D02*
X004724Y001334D01*
X004815Y001235D02*
X004885Y001235D01*
X004885Y001137D02*
X004815Y001137D01*
X004815Y000940D02*
X004885Y000940D01*
X004901Y000841D02*
X004799Y000841D01*
X004700Y000743D02*
X005000Y000743D01*
X005098Y000644D02*
X004602Y000644D01*
X004000Y000743D02*
X001669Y000743D01*
X001907Y000841D02*
X003901Y000841D01*
X003885Y000940D02*
X002013Y000940D01*
X002280Y001629D02*
X004170Y001629D01*
X004071Y001728D02*
X002275Y001728D01*
X002234Y001826D02*
X003551Y001826D01*
X003453Y001925D02*
X002193Y001925D01*
X002151Y002023D02*
X003354Y002023D01*
X003837Y002417D02*
X004116Y002417D01*
X003739Y002516D02*
X012450Y002516D01*
X012450Y002614D02*
X003732Y002614D01*
X003732Y002713D02*
X012450Y002713D01*
X012450Y002811D02*
X011023Y002811D01*
X011017Y002805D02*
X011045Y002833D01*
X011065Y002867D01*
X011075Y002905D01*
X011075Y005000D01*
X009500Y005000D01*
X009500Y005100D01*
X009400Y005100D01*
X009400Y007325D01*
X007955Y007325D01*
X007917Y007315D01*
X007883Y007295D01*
X007855Y007267D01*
X007835Y007233D01*
X007825Y007195D01*
X007825Y005100D01*
X009400Y005100D01*
X009400Y005000D01*
X009500Y005000D01*
X009500Y002775D01*
X010945Y002775D01*
X010983Y002785D01*
X011017Y002805D01*
X011075Y002910D02*
X012450Y002910D01*
X012450Y003008D02*
X011075Y003008D01*
X011075Y003107D02*
X012450Y003107D01*
X012450Y003205D02*
X011075Y003205D01*
X011075Y003304D02*
X012450Y003304D01*
X012450Y003402D02*
X011075Y003402D01*
X011075Y003501D02*
X012450Y003501D01*
X012450Y003599D02*
X011075Y003599D01*
X011075Y003698D02*
X012450Y003698D01*
X012450Y003796D02*
X011075Y003796D01*
X011075Y003895D02*
X012450Y003895D01*
X012450Y003993D02*
X011075Y003993D01*
X011075Y004092D02*
X012450Y004092D01*
X012450Y004190D02*
X011075Y004190D01*
X011075Y004289D02*
X012450Y004289D01*
X012450Y004387D02*
X011075Y004387D01*
X011075Y004486D02*
X012450Y004486D01*
X012450Y004584D02*
X011075Y004584D01*
X011075Y004683D02*
X012450Y004683D01*
X012450Y004781D02*
X011075Y004781D01*
X011075Y004880D02*
X012450Y004880D01*
X012450Y004978D02*
X011075Y004978D01*
X011075Y005100D02*
X011075Y007195D01*
X011065Y007233D01*
X011045Y007267D01*
X011017Y007295D01*
X010983Y007315D01*
X010945Y007325D01*
X009500Y007325D01*
X009500Y005100D01*
X011075Y005100D01*
X011075Y005175D02*
X012450Y005175D01*
X012450Y005077D02*
X009500Y005077D01*
X009500Y005175D02*
X009400Y005175D01*
X009400Y005077D02*
X005220Y005077D01*
X005220Y005100D02*
X005220Y005000D01*
X005745Y005000D01*
X005745Y004820D01*
X005735Y004782D01*
X005715Y004748D01*
X005687Y004720D01*
X005653Y004700D01*
X005615Y004690D01*
X005220Y004690D01*
X005220Y005000D01*
X005120Y005000D01*
X005120Y004690D01*
X004725Y004690D01*
X004687Y004700D01*
X004653Y004720D01*
X004625Y004748D01*
X004605Y004782D01*
X004595Y004820D01*
X004595Y005000D01*
X005120Y005000D01*
X005120Y005100D01*
X005120Y005410D01*
X004725Y005410D01*
X004687Y005400D01*
X004653Y005380D01*
X004625Y005352D01*
X004605Y005318D01*
X004595Y005280D01*
X004595Y005100D01*
X005120Y005100D01*
X005220Y005100D01*
X005220Y005410D01*
X005615Y005410D01*
X005653Y005400D01*
X005687Y005380D01*
X005715Y005352D01*
X005735Y005318D01*
X005745Y005280D01*
X005745Y005100D01*
X005220Y005100D01*
X005220Y005175D02*
X005120Y005175D01*
X005120Y005077D02*
X003772Y005077D01*
X003772Y005126D02*
X003762Y005165D01*
X003742Y005199D01*
X003715Y005227D01*
X003680Y005246D01*
X003642Y005257D01*
X003200Y005257D01*
X003200Y004684D01*
X003772Y004684D01*
X003772Y005126D01*
X003756Y005175D02*
X004595Y005175D01*
X004595Y005274D02*
X000350Y005274D01*
X000350Y005372D02*
X002976Y005372D01*
X002988Y005360D02*
X002760Y005588D01*
X002760Y005720D01*
X003120Y005720D01*
X003120Y005780D01*
X003120Y006140D01*
X002988Y006140D01*
X002760Y005912D01*
X002760Y005780D01*
X003120Y005780D01*
X003180Y005780D01*
X003180Y006140D01*
X003312Y006140D01*
X003540Y005912D01*
X003540Y005780D01*
X003180Y005780D01*
X003180Y005720D01*
X003540Y005720D01*
X003540Y005588D01*
X003312Y005360D01*
X003180Y005360D01*
X003180Y005720D01*
X003120Y005720D01*
X003120Y005360D01*
X002988Y005360D01*
X003120Y005372D02*
X003180Y005372D01*
X003180Y005471D02*
X003120Y005471D01*
X003120Y005569D02*
X003180Y005569D01*
X003180Y005668D02*
X003120Y005668D01*
X003120Y005766D02*
X001689Y005766D01*
X001763Y005840D02*
X001560Y005637D01*
X001294Y005527D01*
X001006Y005527D01*
X000740Y005637D01*
X000537Y005840D01*
X000427Y006106D01*
X000427Y006394D01*
X000537Y006660D01*
X000740Y006863D01*
X001006Y006973D01*
X001294Y006973D01*
X001560Y006863D01*
X001763Y006660D01*
X001805Y006560D01*
X002522Y006560D01*
X002800Y006838D01*
X002800Y006895D01*
X003005Y007100D01*
X003062Y007100D01*
X004045Y008084D01*
X004090Y008191D01*
X004209Y008310D01*
X004365Y008375D01*
X004437Y008375D01*
X004887Y008826D01*
X004974Y008913D01*
X005088Y008960D01*
X006515Y008960D01*
X006515Y009346D01*
X006579Y009410D01*
X007371Y009410D01*
X007435Y009346D01*
X007435Y007954D01*
X007371Y007890D01*
X006579Y007890D01*
X006515Y007954D01*
X006515Y008340D01*
X005278Y008340D01*
X004875Y007937D01*
X004875Y007865D01*
X004810Y007709D01*
X004691Y007590D01*
X004535Y007525D01*
X004365Y007525D01*
X004364Y007526D01*
X003560Y006722D01*
X003962Y006320D01*
X004649Y006320D01*
X004699Y006370D01*
X005641Y006370D01*
X005705Y006306D01*
X005705Y005794D01*
X005641Y005730D01*
X004699Y005730D01*
X004649Y005780D01*
X003796Y005780D01*
X003697Y005821D01*
X003178Y006340D01*
X002826Y005987D01*
X002712Y005940D01*
X001805Y005940D01*
X001763Y005840D01*
X001773Y005865D02*
X002760Y005865D01*
X002767Y005963D02*
X002811Y005963D01*
X002900Y006062D02*
X002910Y006062D01*
X002998Y006160D02*
X003358Y006160D01*
X003390Y006062D02*
X003457Y006062D01*
X003489Y005963D02*
X003555Y005963D01*
X003540Y005865D02*
X003654Y005865D01*
X003540Y005668D02*
X007825Y005668D01*
X007825Y005766D02*
X005677Y005766D01*
X005705Y005865D02*
X007825Y005865D01*
X007825Y005963D02*
X005705Y005963D01*
X005705Y006062D02*
X007825Y006062D01*
X007825Y006160D02*
X005705Y006160D01*
X005705Y006259D02*
X007825Y006259D01*
X007825Y006357D02*
X005654Y006357D01*
X004686Y006357D02*
X003925Y006357D01*
X003826Y006456D02*
X007825Y006456D01*
X007825Y006554D02*
X003728Y006554D01*
X003629Y006653D02*
X007825Y006653D01*
X007825Y006751D02*
X003589Y006751D01*
X003688Y006850D02*
X007825Y006850D01*
X007825Y006948D02*
X003786Y006948D01*
X003885Y007047D02*
X007825Y007047D01*
X007825Y007145D02*
X003983Y007145D01*
X004082Y007244D02*
X007841Y007244D01*
X007550Y007244D02*
X011350Y007244D01*
X011350Y007342D02*
X007550Y007342D01*
X007550Y007350D02*
X011350Y007350D01*
X011350Y002750D01*
X007550Y002750D01*
X007550Y007350D01*
X007550Y007145D02*
X011350Y007145D01*
X011350Y007047D02*
X007550Y007047D01*
X007550Y006948D02*
X011350Y006948D01*
X011350Y006850D02*
X007550Y006850D01*
X007550Y006751D02*
X011350Y006751D01*
X011350Y006653D02*
X007550Y006653D01*
X007550Y006554D02*
X011350Y006554D01*
X011350Y006456D02*
X007550Y006456D01*
X007550Y006357D02*
X011350Y006357D01*
X011350Y006259D02*
X007550Y006259D01*
X007550Y006160D02*
X011350Y006160D01*
X011350Y006062D02*
X007550Y006062D01*
X007550Y005963D02*
X011350Y005963D01*
X011350Y005865D02*
X007550Y005865D01*
X007550Y005766D02*
X011350Y005766D01*
X011350Y005668D02*
X007550Y005668D01*
X007550Y005569D02*
X011350Y005569D01*
X011350Y005471D02*
X007550Y005471D01*
X007550Y005372D02*
X011350Y005372D01*
X011350Y005274D02*
X007550Y005274D01*
X007550Y005175D02*
X011350Y005175D01*
X011350Y005077D02*
X007550Y005077D01*
X007550Y004978D02*
X011350Y004978D01*
X011350Y004880D02*
X007550Y004880D01*
X007550Y004781D02*
X011350Y004781D01*
X011350Y004683D02*
X007550Y004683D01*
X007550Y004584D02*
X011350Y004584D01*
X011350Y004486D02*
X007550Y004486D01*
X007550Y004387D02*
X011350Y004387D01*
X011350Y004289D02*
X007550Y004289D01*
X007550Y004190D02*
X011350Y004190D01*
X011350Y004092D02*
X007550Y004092D01*
X007550Y003993D02*
X011350Y003993D01*
X011350Y003895D02*
X007550Y003895D01*
X007550Y003796D02*
X011350Y003796D01*
X011350Y003698D02*
X007550Y003698D01*
X007550Y003599D02*
X011350Y003599D01*
X011350Y003501D02*
X007550Y003501D01*
X007550Y003402D02*
X011350Y003402D01*
X011350Y003304D02*
X007550Y003304D01*
X007550Y003205D02*
X011350Y003205D01*
X011350Y003107D02*
X007550Y003107D01*
X007550Y003008D02*
X011350Y003008D01*
X011350Y002910D02*
X007550Y002910D01*
X007550Y002811D02*
X011350Y002811D01*
X011037Y002319D02*
X008683Y002319D01*
X008775Y002220D02*
X010846Y002220D01*
X010748Y002122D02*
X008775Y002122D01*
X008775Y002023D02*
X010649Y002023D01*
X010607Y001925D02*
X008775Y001925D01*
X008727Y001826D02*
X010566Y001826D01*
X010525Y001728D02*
X008629Y001728D01*
X008390Y001432D02*
X008310Y001432D01*
X008310Y001334D02*
X008390Y001334D01*
X008390Y001235D02*
X008310Y001235D01*
X008310Y001137D02*
X008390Y001137D01*
X008310Y001010D02*
X007885Y001010D01*
X007885Y000857D01*
X008157Y000585D01*
X008310Y000585D01*
X008310Y001010D01*
X008310Y000940D02*
X008390Y000940D01*
X008390Y000841D02*
X008310Y000841D01*
X008310Y000743D02*
X008390Y000743D01*
X008390Y000644D02*
X008310Y000644D01*
X008098Y000644D02*
X007602Y000644D01*
X007700Y000743D02*
X008000Y000743D01*
X007901Y000841D02*
X007799Y000841D01*
X007815Y000940D02*
X007885Y000940D01*
X007885Y001137D02*
X007815Y001137D01*
X007815Y001235D02*
X007885Y001235D01*
X007976Y001334D02*
X007724Y001334D01*
X007626Y001432D02*
X008074Y001432D01*
X008170Y001629D02*
X007530Y001629D01*
X007629Y001728D02*
X008071Y001728D01*
X007390Y001432D02*
X007310Y001432D01*
X007310Y001334D02*
X007390Y001334D01*
X007390Y001235D02*
X007310Y001235D01*
X007310Y001137D02*
X007390Y001137D01*
X007390Y000841D02*
X007310Y000841D01*
X007310Y000743D02*
X007390Y000743D01*
X007390Y000644D02*
X007310Y000644D01*
X007098Y000644D02*
X006602Y000644D01*
X006700Y000743D02*
X007000Y000743D01*
X006901Y000841D02*
X006799Y000841D01*
X006815Y000940D02*
X006885Y000940D01*
X006815Y001090D02*
X006815Y001243D01*
X006543Y001515D01*
X006390Y001515D01*
X006390Y001090D01*
X006815Y001090D01*
X006815Y001137D02*
X006885Y001137D01*
X006885Y001235D02*
X006815Y001235D01*
X006724Y001334D02*
X006976Y001334D01*
X007074Y001432D02*
X006626Y001432D01*
X006530Y001629D02*
X007170Y001629D01*
X007071Y001728D02*
X006629Y001728D01*
X006390Y001432D02*
X006310Y001432D01*
X006310Y001334D02*
X006390Y001334D01*
X006390Y001235D02*
X006310Y001235D01*
X006310Y001137D02*
X006390Y001137D01*
X006390Y000841D02*
X006310Y000841D01*
X006310Y000743D02*
X006390Y000743D01*
X006390Y000644D02*
X006310Y000644D01*
X006098Y000644D02*
X005602Y000644D01*
X005700Y000743D02*
X006000Y000743D01*
X005901Y000841D02*
X005799Y000841D01*
X005815Y000940D02*
X005885Y000940D01*
X005815Y001090D02*
X005815Y001243D01*
X005543Y001515D01*
X005390Y001515D01*
X005390Y001090D01*
X005815Y001090D01*
X005815Y001137D02*
X005885Y001137D01*
X005885Y001235D02*
X005815Y001235D01*
X005724Y001334D02*
X005976Y001334D01*
X006074Y001432D02*
X005626Y001432D01*
X005390Y001432D02*
X005310Y001432D01*
X005310Y001334D02*
X005390Y001334D01*
X005390Y001235D02*
X005310Y001235D01*
X005310Y001137D02*
X005390Y001137D01*
X005390Y000841D02*
X005310Y000841D01*
X005310Y000743D02*
X005390Y000743D01*
X005390Y000644D02*
X005310Y000644D01*
X005170Y001629D02*
X004530Y001629D01*
X004629Y001728D02*
X005071Y001728D01*
X005530Y001629D02*
X006170Y001629D01*
X006071Y001728D02*
X005629Y001728D01*
X005584Y002417D02*
X006116Y002417D01*
X006584Y002417D02*
X007116Y002417D01*
X007584Y002417D02*
X008116Y002417D01*
X007955Y002775D02*
X007917Y002785D01*
X007883Y002805D01*
X007855Y002833D01*
X007835Y002867D01*
X007825Y002905D01*
X007825Y005000D01*
X009400Y005000D01*
X009400Y002775D01*
X007955Y002775D01*
X007877Y002811D02*
X003732Y002811D01*
X003732Y002910D02*
X007825Y002910D01*
X007825Y003008D02*
X003773Y003008D01*
X003852Y003107D02*
X007825Y003107D01*
X007825Y003205D02*
X003931Y003205D01*
X004011Y003304D02*
X007825Y003304D01*
X007825Y003402D02*
X004090Y003402D01*
X004170Y003501D02*
X007825Y003501D01*
X007825Y003599D02*
X004249Y003599D01*
X004328Y003698D02*
X007825Y003698D01*
X007825Y003796D02*
X005705Y003796D01*
X005705Y003895D02*
X007825Y003895D01*
X007825Y003993D02*
X005705Y003993D01*
X005705Y004092D02*
X007825Y004092D01*
X007825Y004190D02*
X005705Y004190D01*
X005705Y004289D02*
X007825Y004289D01*
X007825Y004387D02*
X003772Y004387D01*
X003772Y004289D02*
X004136Y004289D01*
X004031Y004190D02*
X003772Y004190D01*
X003772Y004142D02*
X003772Y004584D01*
X007825Y004584D01*
X007825Y004486D02*
X003772Y004486D01*
X003772Y004584D02*
X003200Y004584D01*
X003100Y004584D01*
X003200Y004584D01*
X003200Y004012D01*
X003642Y004012D01*
X003680Y004022D01*
X003715Y004042D01*
X003742Y004070D01*
X003762Y004104D01*
X003772Y004142D01*
X003755Y004092D02*
X003952Y004092D01*
X003873Y003993D02*
X001870Y003993D01*
X001874Y004004D02*
X001900Y004101D01*
X001913Y004200D01*
X001200Y004200D01*
X001200Y004300D01*
X001100Y004300D01*
X001100Y005013D01*
X001100Y005013D01*
X001001Y005000D01*
X000904Y004974D01*
X000812Y004936D01*
X000725Y004886D01*
X000646Y004825D01*
X000575Y004754D01*
X000514Y004675D01*
X000464Y004588D01*
X000426Y004496D01*
X000400Y004399D01*
X000387Y004300D01*
X001100Y004300D01*
X001100Y004200D01*
X000387Y004200D01*
X000400Y004101D01*
X000426Y004004D01*
X000464Y003912D01*
X000514Y003825D01*
X000575Y003746D01*
X000646Y003675D01*
X000725Y003614D01*
X000812Y003564D01*
X000904Y003526D01*
X001001Y003500D01*
X001100Y003487D01*
X001100Y004200D01*
X001200Y004200D01*
X001200Y003487D01*
X001200Y003487D01*
X001299Y003500D01*
X001396Y003526D01*
X001488Y003564D01*
X001575Y003614D01*
X001654Y003675D01*
X001725Y003746D01*
X001786Y003825D01*
X001836Y003912D01*
X001874Y004004D01*
X001898Y004092D02*
X002545Y004092D01*
X002538Y004104D02*
X002558Y004070D01*
X002585Y004042D01*
X002620Y004022D01*
X002658Y004012D01*
X003100Y004012D01*
X003100Y004584D01*
X002528Y004584D01*
X001838Y004584D01*
X001836Y004588D02*
X001786Y004675D01*
X001725Y004754D01*
X001654Y004825D01*
X001575Y004886D01*
X001488Y004936D01*
X001396Y004974D01*
X001299Y005000D01*
X001200Y005013D01*
X001200Y004300D01*
X001913Y004300D01*
X001913Y004300D01*
X001900Y004399D01*
X001874Y004496D01*
X001836Y004588D01*
X001780Y004683D02*
X003100Y004683D01*
X003100Y004684D02*
X003100Y004584D01*
X003100Y004486D02*
X003200Y004486D01*
X003200Y004584D02*
X003200Y004684D01*
X003100Y004684D01*
X002528Y004684D01*
X002528Y005126D01*
X002538Y005165D01*
X002558Y005199D01*
X002585Y005227D01*
X002620Y005246D01*
X002658Y005257D01*
X003100Y005257D01*
X003100Y004684D01*
X003100Y004781D02*
X003200Y004781D01*
X003200Y004683D02*
X007825Y004683D01*
X007825Y004781D02*
X005734Y004781D01*
X005745Y004880D02*
X007825Y004880D01*
X007825Y004978D02*
X005745Y004978D01*
X005745Y005175D02*
X007825Y005175D01*
X007825Y005274D02*
X005745Y005274D01*
X005695Y005372D02*
X007825Y005372D01*
X007825Y005471D02*
X003422Y005471D01*
X003521Y005569D02*
X007825Y005569D01*
X009400Y005569D02*
X009500Y005569D01*
X009500Y005471D02*
X009400Y005471D01*
X009400Y005372D02*
X009500Y005372D01*
X009500Y005274D02*
X009400Y005274D01*
X009400Y004978D02*
X009500Y004978D01*
X009500Y004880D02*
X009400Y004880D01*
X009400Y004781D02*
X009500Y004781D01*
X009500Y004683D02*
X009400Y004683D01*
X009400Y004584D02*
X009500Y004584D01*
X009500Y004486D02*
X009400Y004486D01*
X009400Y004387D02*
X009500Y004387D01*
X009500Y004289D02*
X009400Y004289D01*
X009400Y004190D02*
X009500Y004190D01*
X009500Y004092D02*
X009400Y004092D01*
X009400Y003993D02*
X009500Y003993D01*
X009500Y003895D02*
X009400Y003895D01*
X009400Y003796D02*
X009500Y003796D01*
X009500Y003698D02*
X009400Y003698D01*
X009400Y003599D02*
X009500Y003599D01*
X009500Y003501D02*
X009400Y003501D01*
X009400Y003402D02*
X009500Y003402D01*
X009500Y003304D02*
X009400Y003304D01*
X009400Y003205D02*
X009500Y003205D01*
X009500Y003107D02*
X009400Y003107D01*
X009400Y003008D02*
X009500Y003008D01*
X009500Y002910D02*
X009400Y002910D01*
X009400Y002811D02*
X009500Y002811D01*
X008584Y002417D02*
X012450Y002417D01*
X012450Y002319D02*
X011663Y002319D01*
X011854Y002220D02*
X012450Y002220D01*
X012450Y002122D02*
X011952Y002122D01*
X012051Y002023D02*
X012450Y002023D01*
X012450Y001925D02*
X012093Y001925D01*
X012134Y001826D02*
X012450Y001826D01*
X012450Y001728D02*
X012175Y001728D01*
X012180Y001629D02*
X012450Y001629D01*
X012450Y001531D02*
X012180Y001531D01*
X012180Y001432D02*
X012450Y001432D01*
X012450Y001334D02*
X012159Y001334D01*
X012118Y001235D02*
X012449Y001235D01*
X012441Y001137D02*
X012077Y001137D01*
X012012Y001038D02*
X012412Y001038D01*
X012380Y000940D02*
X011913Y000940D01*
X011807Y000841D02*
X012330Y000841D01*
X012258Y000743D02*
X011569Y000743D01*
X012025Y000546D02*
X000775Y000546D01*
X000542Y000743D02*
X001231Y000743D01*
X000993Y000841D02*
X000470Y000841D01*
X000420Y000940D02*
X000887Y000940D01*
X000788Y001038D02*
X000388Y001038D01*
X000359Y001137D02*
X000723Y001137D01*
X000682Y001235D02*
X000351Y001235D01*
X000350Y001334D02*
X000641Y001334D01*
X000620Y001432D02*
X000350Y001432D01*
X000350Y001531D02*
X000620Y001531D01*
X000620Y001629D02*
X000350Y001629D01*
X000350Y001728D02*
X000625Y001728D01*
X000666Y001826D02*
X000350Y001826D01*
X000350Y001925D02*
X000707Y001925D01*
X000749Y002023D02*
X000350Y002023D01*
X000350Y002122D02*
X000848Y002122D01*
X000946Y002220D02*
X000350Y002220D01*
X000350Y002319D02*
X001137Y002319D01*
X001763Y002319D02*
X002568Y002319D01*
X002568Y002417D02*
X000350Y002417D01*
X000350Y002516D02*
X002568Y002516D01*
X002568Y002614D02*
X000350Y002614D01*
X000350Y002713D02*
X002568Y002713D01*
X002568Y002811D02*
X000350Y002811D01*
X000350Y002910D02*
X002568Y002910D01*
X002568Y003008D02*
X000350Y003008D01*
X000350Y003107D02*
X002568Y003107D01*
X002589Y003205D02*
X000350Y003205D01*
X000350Y003304D02*
X003317Y003304D01*
X003397Y003402D02*
X000350Y003402D01*
X000350Y003501D02*
X000998Y003501D01*
X001100Y003501D02*
X001200Y003501D01*
X001200Y003599D02*
X001100Y003599D01*
X001100Y003698D02*
X001200Y003698D01*
X001200Y003796D02*
X001100Y003796D01*
X001100Y003895D02*
X001200Y003895D01*
X001200Y003993D02*
X001100Y003993D01*
X001100Y004092D02*
X001200Y004092D01*
X001200Y004190D02*
X001100Y004190D01*
X001100Y004289D02*
X000350Y004289D01*
X000387Y004300D02*
X000387Y004300D01*
X000398Y004387D02*
X000350Y004387D01*
X000350Y004486D02*
X000423Y004486D01*
X000462Y004584D02*
X000350Y004584D01*
X000350Y004683D02*
X000520Y004683D01*
X000601Y004781D02*
X000350Y004781D01*
X000350Y004880D02*
X000716Y004880D01*
X000917Y004978D02*
X000350Y004978D01*
X000350Y005077D02*
X002528Y005077D01*
X002528Y004978D02*
X001383Y004978D01*
X001200Y004978D02*
X001100Y004978D01*
X001100Y004880D02*
X001200Y004880D01*
X001200Y004781D02*
X001100Y004781D01*
X001100Y004683D02*
X001200Y004683D01*
X001200Y004584D02*
X001100Y004584D01*
X001100Y004486D02*
X001200Y004486D01*
X001200Y004387D02*
X001100Y004387D01*
X001200Y004289D02*
X002528Y004289D01*
X002528Y004387D02*
X001902Y004387D01*
X001877Y004486D02*
X002528Y004486D01*
X002528Y004584D02*
X002528Y004142D01*
X002538Y004104D01*
X002528Y004190D02*
X001912Y004190D01*
X001913Y004200D02*
X001913Y004200D01*
X001826Y003895D02*
X003794Y003895D01*
X003714Y003796D02*
X001764Y003796D01*
X001677Y003698D02*
X003635Y003698D01*
X003555Y003599D02*
X001549Y003599D01*
X001302Y003501D02*
X003476Y003501D01*
X003200Y004092D02*
X003100Y004092D01*
X003100Y004190D02*
X003200Y004190D01*
X003200Y004289D02*
X003100Y004289D01*
X003100Y004387D02*
X003200Y004387D01*
X003200Y004880D02*
X003100Y004880D01*
X003100Y004978D02*
X003200Y004978D01*
X003200Y005077D02*
X003100Y005077D01*
X003100Y005175D02*
X003200Y005175D01*
X003324Y005372D02*
X004645Y005372D01*
X004663Y005766D02*
X003180Y005766D01*
X003180Y005865D02*
X003120Y005865D01*
X003120Y005963D02*
X003180Y005963D01*
X003180Y006062D02*
X003120Y006062D01*
X003097Y006259D02*
X003260Y006259D01*
X002713Y006751D02*
X001672Y006751D01*
X001766Y006653D02*
X002614Y006653D01*
X002800Y006850D02*
X001574Y006850D01*
X001355Y006948D02*
X002853Y006948D01*
X002952Y007047D02*
X000350Y007047D01*
X000350Y007145D02*
X003107Y007145D01*
X003205Y007244D02*
X000350Y007244D01*
X000350Y007342D02*
X003304Y007342D01*
X003402Y007441D02*
X000350Y007441D01*
X000350Y007539D02*
X003501Y007539D01*
X003599Y007638D02*
X000350Y007638D01*
X000350Y007736D02*
X003698Y007736D01*
X003796Y007835D02*
X000350Y007835D01*
X000350Y007933D02*
X003895Y007933D01*
X003993Y008032D02*
X000350Y008032D01*
X000350Y008130D02*
X001261Y008130D01*
X001285Y008120D02*
X001615Y008120D01*
X001920Y008246D01*
X002154Y008480D01*
X002280Y008785D01*
X002280Y009115D01*
X004027Y009115D01*
X003985Y009157D02*
X004257Y008885D01*
X004420Y008885D01*
X004420Y009320D01*
X003985Y009320D01*
X003985Y009157D01*
X003985Y009214D02*
X002239Y009214D01*
X002198Y009312D02*
X003985Y009312D01*
X003985Y009380D02*
X004420Y009380D01*
X004420Y009815D01*
X004257Y009815D01*
X003985Y009543D01*
X003985Y009380D01*
X003985Y009411D02*
X002158Y009411D01*
X002154Y009420D02*
X001920Y009654D01*
X001615Y009780D01*
X001285Y009780D01*
X000980Y009654D01*
X000746Y009420D01*
X000620Y009115D01*
X000350Y009115D01*
X000350Y009017D02*
X000620Y009017D01*
X000620Y009115D02*
X000620Y008785D01*
X000746Y008480D01*
X000980Y008246D01*
X001285Y008120D01*
X001639Y008130D02*
X004065Y008130D01*
X004127Y008229D02*
X001877Y008229D01*
X002001Y008327D02*
X004250Y008327D01*
X004487Y008426D02*
X002099Y008426D01*
X002172Y008524D02*
X004586Y008524D01*
X004684Y008623D02*
X002213Y008623D01*
X002253Y008721D02*
X004783Y008721D01*
X004881Y008820D02*
X002280Y008820D01*
X002280Y008918D02*
X004224Y008918D01*
X004126Y009017D02*
X002280Y009017D01*
X002280Y009115D02*
X002154Y009420D01*
X002065Y009509D02*
X003985Y009509D01*
X004050Y009608D02*
X001966Y009608D01*
X001793Y009706D02*
X004148Y009706D01*
X004247Y009805D02*
X000576Y009805D01*
X000505Y009706D02*
X001107Y009706D01*
X000934Y009608D02*
X000435Y009608D01*
X000403Y009509D02*
X000835Y009509D01*
X000742Y009411D02*
X000371Y009411D01*
X000355Y009312D02*
X000702Y009312D01*
X000661Y009214D02*
X000350Y009214D01*
X000350Y008918D02*
X000620Y008918D01*
X000620Y008820D02*
X000350Y008820D01*
X000350Y008721D02*
X000647Y008721D01*
X000687Y008623D02*
X000350Y008623D01*
X000350Y008524D02*
X000728Y008524D01*
X000801Y008426D02*
X000350Y008426D01*
X000350Y008327D02*
X000899Y008327D01*
X001023Y008229D02*
X000350Y008229D01*
X000350Y006948D02*
X000945Y006948D01*
X000726Y006850D02*
X000350Y006850D01*
X000350Y006751D02*
X000628Y006751D01*
X000534Y006653D02*
X000350Y006653D01*
X000350Y006554D02*
X000493Y006554D01*
X000452Y006456D02*
X000350Y006456D01*
X000350Y006357D02*
X000427Y006357D01*
X000427Y006259D02*
X000350Y006259D01*
X000350Y006160D02*
X000427Y006160D01*
X000445Y006062D02*
X000350Y006062D01*
X000350Y005963D02*
X000486Y005963D01*
X000527Y005865D02*
X000350Y005865D01*
X000350Y005766D02*
X000611Y005766D01*
X000709Y005668D02*
X000350Y005668D01*
X000350Y005569D02*
X000904Y005569D01*
X001396Y005569D02*
X002779Y005569D01*
X002760Y005668D02*
X001591Y005668D01*
X001200Y005013D02*
X001200Y005013D01*
X001584Y004880D02*
X002528Y004880D01*
X002528Y004781D02*
X001699Y004781D01*
X002544Y005175D02*
X000350Y005175D01*
X000350Y005471D02*
X002878Y005471D01*
X003772Y004978D02*
X004595Y004978D01*
X004595Y004880D02*
X003772Y004880D01*
X003772Y004781D02*
X004606Y004781D01*
X005120Y004781D02*
X005220Y004781D01*
X005220Y004880D02*
X005120Y004880D01*
X005120Y004978D02*
X005220Y004978D01*
X005220Y005274D02*
X005120Y005274D01*
X005120Y005372D02*
X005220Y005372D01*
X004180Y007342D02*
X012450Y007342D01*
X012450Y007244D02*
X011059Y007244D01*
X011075Y007145D02*
X012450Y007145D01*
X012450Y007047D02*
X011075Y007047D01*
X011075Y006948D02*
X012450Y006948D01*
X012450Y006850D02*
X011075Y006850D01*
X011075Y006751D02*
X012450Y006751D01*
X012450Y006653D02*
X011075Y006653D01*
X011075Y006554D02*
X012450Y006554D01*
X012450Y006456D02*
X011075Y006456D01*
X011075Y006357D02*
X012450Y006357D01*
X012450Y006259D02*
X011075Y006259D01*
X011075Y006160D02*
X012450Y006160D01*
X012450Y006062D02*
X011075Y006062D01*
X011075Y005963D02*
X012450Y005963D01*
X012450Y005865D02*
X011075Y005865D01*
X011075Y005766D02*
X012450Y005766D01*
X012450Y005668D02*
X011075Y005668D01*
X011075Y005569D02*
X012450Y005569D01*
X012450Y005471D02*
X011075Y005471D01*
X011075Y005372D02*
X012450Y005372D01*
X012450Y005274D02*
X011075Y005274D01*
X009500Y005668D02*
X009400Y005668D01*
X009400Y005766D02*
X009500Y005766D01*
X009500Y005865D02*
X009400Y005865D01*
X009400Y005963D02*
X009500Y005963D01*
X009500Y006062D02*
X009400Y006062D01*
X009400Y006160D02*
X009500Y006160D01*
X009500Y006259D02*
X009400Y006259D01*
X009400Y006357D02*
X009500Y006357D01*
X009500Y006456D02*
X009400Y006456D01*
X009400Y006554D02*
X009500Y006554D01*
X009500Y006653D02*
X009400Y006653D01*
X009400Y006751D02*
X009500Y006751D01*
X009500Y006850D02*
X009400Y006850D01*
X009400Y006948D02*
X009500Y006948D01*
X009500Y007047D02*
X009400Y007047D01*
X009400Y007145D02*
X009500Y007145D01*
X009500Y007244D02*
X009400Y007244D01*
X009475Y007850D02*
X009155Y007850D01*
X009117Y007860D01*
X009083Y007880D01*
X009055Y007908D01*
X009035Y007942D01*
X009025Y007980D01*
X009025Y008600D01*
X009475Y008600D01*
X009575Y008600D01*
X009575Y008700D01*
X009475Y008700D01*
X009475Y009450D01*
X009155Y009450D01*
X009117Y009440D01*
X009083Y009420D01*
X009055Y009392D01*
X009035Y009358D01*
X009025Y009320D01*
X009025Y008700D01*
X009475Y008700D01*
X009475Y008600D01*
X009475Y007850D01*
X009475Y007933D02*
X009575Y007933D01*
X009575Y007850D02*
X009895Y007850D01*
X009933Y007860D01*
X009967Y007880D01*
X009995Y007908D01*
X010015Y007942D01*
X010025Y007980D01*
X010025Y008600D01*
X009575Y008600D01*
X009575Y007850D01*
X009575Y008032D02*
X009475Y008032D01*
X009475Y008130D02*
X009575Y008130D01*
X009575Y008229D02*
X009475Y008229D01*
X009475Y008327D02*
X009575Y008327D01*
X009575Y008426D02*
X009475Y008426D01*
X009475Y008524D02*
X009575Y008524D01*
X009575Y008623D02*
X010587Y008623D01*
X010547Y008721D02*
X010025Y008721D01*
X010025Y008700D02*
X010025Y009320D01*
X010015Y009358D01*
X009995Y009392D01*
X009967Y009420D01*
X009933Y009440D01*
X009895Y009450D01*
X009575Y009450D01*
X009575Y008700D01*
X010025Y008700D01*
X010025Y008820D02*
X010520Y008820D01*
X010520Y008785D02*
X010646Y008480D01*
X010880Y008246D01*
X011185Y008120D01*
X011515Y008120D01*
X011820Y008246D01*
X012054Y008480D01*
X012180Y008785D01*
X012180Y009115D01*
X012450Y009115D01*
X012450Y009017D02*
X012180Y009017D01*
X012180Y009115D02*
X012054Y009420D01*
X011820Y009654D01*
X011515Y009780D01*
X011185Y009780D01*
X010880Y009654D01*
X010646Y009420D01*
X010520Y009115D01*
X010025Y009115D01*
X010025Y009017D02*
X010520Y009017D01*
X010520Y009115D02*
X010520Y008785D01*
X010520Y008918D02*
X010025Y008918D01*
X010025Y009214D02*
X010561Y009214D01*
X010602Y009312D02*
X010025Y009312D01*
X009977Y009411D02*
X010642Y009411D01*
X010735Y009509D02*
X004915Y009509D01*
X004915Y009543D02*
X004643Y009815D01*
X004480Y009815D01*
X004480Y009380D01*
X004420Y009380D01*
X004420Y009320D01*
X004480Y009320D01*
X004480Y009380D01*
X004915Y009380D01*
X004915Y009543D01*
X004850Y009608D02*
X010834Y009608D01*
X011007Y009706D02*
X004752Y009706D01*
X004653Y009805D02*
X012224Y009805D01*
X012295Y009706D02*
X011693Y009706D01*
X011866Y009608D02*
X012365Y009608D01*
X012397Y009509D02*
X011965Y009509D01*
X012058Y009411D02*
X012429Y009411D01*
X012445Y009312D02*
X012098Y009312D01*
X012139Y009214D02*
X012450Y009214D01*
X012450Y008918D02*
X012180Y008918D01*
X012180Y008820D02*
X012450Y008820D01*
X012450Y008721D02*
X012153Y008721D01*
X012113Y008623D02*
X012450Y008623D01*
X012450Y008524D02*
X012072Y008524D01*
X011999Y008426D02*
X012450Y008426D01*
X012450Y008327D02*
X011901Y008327D01*
X011777Y008229D02*
X012450Y008229D01*
X012450Y008130D02*
X011539Y008130D01*
X011161Y008130D02*
X010025Y008130D01*
X010025Y008032D02*
X012450Y008032D01*
X012450Y007933D02*
X010010Y007933D01*
X010025Y008229D02*
X010923Y008229D01*
X010799Y008327D02*
X010025Y008327D01*
X010025Y008426D02*
X010701Y008426D01*
X010628Y008524D02*
X010025Y008524D01*
X009575Y008721D02*
X009475Y008721D01*
X009475Y008623D02*
X007435Y008623D01*
X007435Y008721D02*
X009025Y008721D01*
X009025Y008820D02*
X007435Y008820D01*
X007435Y008918D02*
X009025Y008918D01*
X009025Y009017D02*
X007435Y009017D01*
X007435Y009115D02*
X009025Y009115D01*
X009025Y009214D02*
X007435Y009214D01*
X007435Y009312D02*
X009025Y009312D01*
X009073Y009411D02*
X004915Y009411D01*
X004915Y009320D02*
X004480Y009320D01*
X004480Y008885D01*
X004643Y008885D01*
X004915Y009157D01*
X004915Y009320D01*
X004915Y009312D02*
X006515Y009312D01*
X006515Y009214D02*
X004915Y009214D01*
X004873Y009115D02*
X006515Y009115D01*
X006515Y009017D02*
X004774Y009017D01*
X004676Y008918D02*
X004987Y008918D01*
X004480Y008918D02*
X004420Y008918D01*
X004420Y009017D02*
X004480Y009017D01*
X004480Y009115D02*
X004420Y009115D01*
X004420Y009214D02*
X004480Y009214D01*
X004480Y009312D02*
X004420Y009312D01*
X004420Y009411D02*
X004480Y009411D01*
X004480Y009509D02*
X004420Y009509D01*
X004420Y009608D02*
X004480Y009608D01*
X004480Y009706D02*
X004420Y009706D01*
X004420Y009805D02*
X004480Y009805D01*
X005265Y008327D02*
X006515Y008327D01*
X006515Y008229D02*
X005167Y008229D01*
X005068Y008130D02*
X006515Y008130D01*
X006515Y008032D02*
X004970Y008032D01*
X004875Y007933D02*
X006536Y007933D01*
X007414Y007933D02*
X009040Y007933D01*
X009025Y008032D02*
X007435Y008032D01*
X007435Y008130D02*
X009025Y008130D01*
X009025Y008229D02*
X007435Y008229D01*
X007435Y008327D02*
X009025Y008327D01*
X009025Y008426D02*
X007435Y008426D01*
X007435Y008524D02*
X009025Y008524D01*
X009475Y008820D02*
X009575Y008820D01*
X009575Y008918D02*
X009475Y008918D01*
X009475Y009017D02*
X009575Y009017D01*
X009575Y009115D02*
X009475Y009115D01*
X009475Y009214D02*
X009575Y009214D01*
X009575Y009312D02*
X009475Y009312D01*
X009475Y009411D02*
X009575Y009411D01*
X011894Y010002D02*
X000906Y010002D01*
X000705Y009903D02*
X012095Y009903D01*
X012450Y007835D02*
X004862Y007835D01*
X004821Y007736D02*
X012450Y007736D01*
X012450Y007638D02*
X004739Y007638D01*
X004568Y007539D02*
X012450Y007539D01*
X012450Y007441D02*
X004279Y007441D01*
X000387Y004200D02*
X000387Y004200D01*
X000388Y004190D02*
X000350Y004190D01*
X000350Y004092D02*
X000402Y004092D01*
X000430Y003993D02*
X000350Y003993D01*
X000350Y003895D02*
X000474Y003895D01*
X000536Y003796D02*
X000350Y003796D01*
X000350Y003698D02*
X000623Y003698D01*
X000751Y003599D02*
X000350Y003599D01*
X001100Y003487D02*
X001100Y003487D01*
X001954Y002220D02*
X002568Y002220D01*
X002594Y002122D02*
X002052Y002122D01*
X004584Y002417D02*
X005116Y002417D01*
X008602Y000644D02*
X012160Y000644D01*
X011131Y000743D02*
X008700Y000743D01*
X008799Y000841D02*
X010893Y000841D01*
D20*
X005170Y004050D02*
X004266Y004050D01*
X003150Y002666D01*
X003850Y006050D02*
X003150Y006750D01*
X003850Y006050D02*
X005170Y006050D01*
D21*
X004350Y007950D02*
X003150Y006750D01*
X002650Y006250D01*
X001150Y006250D01*
X004350Y007950D02*
X004450Y007950D01*
X005150Y008650D01*
X006975Y008650D01*
X003150Y002666D02*
X003766Y002050D01*
X004350Y002050D01*
X005350Y002050D01*
X006350Y002050D01*
X007350Y002050D01*
X008350Y002050D01*
M02*
