G75*
G70*
%OFA0B0*%
%FSLAX24Y24*%
%IPPOS*%
%LPD*%
%AMOC8*
5,1,8,0,0,1.08239X$1,22.5*
%
%ADD10OC8,0.0630*%
%ADD11C,0.0630*%
%ADD12OC8,0.0480*%
%ADD13C,0.1227*%
%ADD14C,0.0100*%
%ADD15C,0.0270*%
D10*
X004350Y001050D03*
X005350Y001050D03*
X006350Y001050D03*
X007350Y001050D03*
X008350Y001050D03*
X008350Y002050D03*
X007350Y002050D03*
X006350Y002050D03*
X005350Y002050D03*
X004350Y002050D03*
X004450Y009350D03*
D11*
X004450Y007950D03*
D12*
X003150Y006750D03*
X003150Y005750D03*
D13*
X001150Y006250D03*
X001150Y004250D03*
D14*
X000437Y000887D02*
X000584Y000684D01*
X000787Y000537D01*
X001025Y000460D01*
X001150Y000450D01*
X011650Y000450D01*
X011775Y000460D01*
X012013Y000537D01*
X012216Y000684D01*
X012363Y000887D01*
X012440Y001125D01*
X012450Y001250D01*
X012450Y009250D01*
X012440Y009375D01*
X012363Y009613D01*
X012216Y009816D01*
X012013Y009963D01*
X011775Y010040D01*
X011650Y010050D01*
X001150Y010050D01*
X001025Y010040D01*
X000787Y009963D01*
X000584Y009816D01*
X000437Y009613D01*
X000360Y009375D01*
X000350Y009250D01*
X000350Y001250D01*
X000360Y001125D01*
X000437Y000887D01*
X000420Y000940D02*
X000887Y000940D01*
X000980Y000846D02*
X000746Y001080D01*
X000620Y001385D01*
X000620Y001715D01*
X000746Y002020D01*
X000980Y002254D01*
X001285Y002380D01*
X001615Y002380D01*
X001920Y002254D01*
X002154Y002020D01*
X002280Y001715D01*
X002280Y001385D01*
X002154Y001080D01*
X001920Y000846D01*
X001615Y000720D01*
X001285Y000720D01*
X000980Y000846D01*
X000993Y000841D02*
X000470Y000841D01*
X000542Y000743D02*
X001231Y000743D01*
X000775Y000546D02*
X012025Y000546D01*
X012160Y000644D02*
X008602Y000644D01*
X008543Y000585D02*
X008815Y000857D01*
X008815Y001010D01*
X008390Y001010D01*
X008390Y001090D01*
X008815Y001090D01*
X008815Y001243D01*
X008543Y001515D01*
X008390Y001515D01*
X008390Y001090D01*
X008310Y001090D01*
X008310Y001515D01*
X008157Y001515D01*
X007885Y001243D01*
X007885Y001090D01*
X008310Y001090D01*
X008310Y001010D01*
X008390Y001010D01*
X008390Y000585D01*
X008543Y000585D01*
X008390Y000644D02*
X008310Y000644D01*
X008310Y000585D02*
X008157Y000585D01*
X007885Y000857D01*
X007885Y001010D01*
X008310Y001010D01*
X008310Y000585D01*
X008098Y000644D02*
X007602Y000644D01*
X007543Y000585D02*
X007815Y000857D01*
X007815Y001010D01*
X007390Y001010D01*
X007390Y001090D01*
X007815Y001090D01*
X007815Y001243D01*
X007543Y001515D01*
X007390Y001515D01*
X007390Y001090D01*
X007310Y001090D01*
X007310Y001515D01*
X007157Y001515D01*
X006885Y001243D01*
X006885Y001090D01*
X007310Y001090D01*
X007310Y001010D01*
X007390Y001010D01*
X007390Y000585D01*
X007543Y000585D01*
X007390Y000644D02*
X007310Y000644D01*
X007310Y000585D02*
X007310Y001010D01*
X006885Y001010D01*
X006885Y000857D01*
X007157Y000585D01*
X007310Y000585D01*
X007310Y000743D02*
X007390Y000743D01*
X007390Y000841D02*
X007310Y000841D01*
X007310Y000940D02*
X007390Y000940D01*
X007390Y001038D02*
X008310Y001038D01*
X008390Y001038D02*
X010688Y001038D01*
X010646Y001080D02*
X010880Y000846D01*
X011185Y000720D01*
X011515Y000720D01*
X011820Y000846D01*
X012054Y001080D01*
X012180Y001385D01*
X012180Y001715D01*
X012054Y002020D01*
X011820Y002254D01*
X011515Y002380D01*
X011185Y002380D01*
X010880Y002254D01*
X010646Y002020D01*
X010520Y001715D01*
X010520Y001385D01*
X010646Y001080D01*
X010623Y001137D02*
X008815Y001137D01*
X008815Y001235D02*
X010582Y001235D01*
X010541Y001334D02*
X008724Y001334D01*
X008626Y001432D02*
X010520Y001432D01*
X010520Y001531D02*
X002280Y001531D01*
X002280Y001629D02*
X004170Y001629D01*
X004174Y001625D02*
X004526Y001625D01*
X004775Y001874D01*
X004775Y002226D01*
X004526Y002475D01*
X004174Y002475D01*
X003925Y002226D01*
X003925Y001874D01*
X004174Y001625D01*
X004157Y001515D02*
X003885Y001243D01*
X003885Y001090D01*
X004310Y001090D01*
X004310Y001515D01*
X004157Y001515D01*
X004074Y001432D02*
X002280Y001432D01*
X002259Y001334D02*
X003976Y001334D01*
X003885Y001235D02*
X002218Y001235D01*
X002177Y001137D02*
X003885Y001137D01*
X003885Y001010D02*
X003885Y000857D01*
X004157Y000585D01*
X004310Y000585D01*
X004310Y001010D01*
X003885Y001010D01*
X003885Y000940D02*
X002013Y000940D01*
X002112Y001038D02*
X004310Y001038D01*
X004310Y001010D02*
X004310Y001090D01*
X004390Y001090D01*
X004390Y001515D01*
X004543Y001515D01*
X004815Y001243D01*
X004815Y001090D01*
X004390Y001090D01*
X004390Y001010D01*
X004815Y001010D01*
X004815Y000857D01*
X004543Y000585D01*
X004390Y000585D01*
X004390Y001010D01*
X004310Y001010D01*
X004310Y000940D02*
X004390Y000940D01*
X004390Y001038D02*
X005310Y001038D01*
X005310Y001010D02*
X004885Y001010D01*
X004885Y000857D01*
X005157Y000585D01*
X005310Y000585D01*
X005310Y001010D01*
X005310Y001090D01*
X005310Y001515D01*
X005157Y001515D01*
X004885Y001243D01*
X004885Y001090D01*
X005310Y001090D01*
X005390Y001090D01*
X005390Y001515D01*
X005543Y001515D01*
X005815Y001243D01*
X005815Y001090D01*
X005390Y001090D01*
X005390Y001010D01*
X005815Y001010D01*
X005815Y000857D01*
X005543Y000585D01*
X005390Y000585D01*
X005390Y001010D01*
X005310Y001010D01*
X005310Y000940D02*
X005390Y000940D01*
X005390Y001038D02*
X006310Y001038D01*
X006310Y001010D02*
X005885Y001010D01*
X005885Y000857D01*
X006157Y000585D01*
X006310Y000585D01*
X006310Y001010D01*
X006310Y001090D01*
X006310Y001515D01*
X006157Y001515D01*
X005885Y001243D01*
X005885Y001090D01*
X006310Y001090D01*
X006390Y001090D01*
X006390Y001515D01*
X006543Y001515D01*
X006815Y001243D01*
X006815Y001090D01*
X006390Y001090D01*
X006390Y001010D01*
X006815Y001010D01*
X006815Y000857D01*
X006543Y000585D01*
X006390Y000585D01*
X006390Y001010D01*
X006310Y001010D01*
X006310Y000940D02*
X006390Y000940D01*
X006390Y001038D02*
X007310Y001038D01*
X007310Y001137D02*
X007390Y001137D01*
X007390Y001235D02*
X007310Y001235D01*
X007310Y001334D02*
X007390Y001334D01*
X007390Y001432D02*
X007310Y001432D01*
X007074Y001432D02*
X006626Y001432D01*
X006724Y001334D02*
X006976Y001334D01*
X006885Y001235D02*
X006815Y001235D01*
X006815Y001137D02*
X006885Y001137D01*
X006885Y000940D02*
X006815Y000940D01*
X006799Y000841D02*
X006901Y000841D01*
X007000Y000743D02*
X006700Y000743D01*
X006602Y000644D02*
X007098Y000644D01*
X007700Y000743D02*
X008000Y000743D01*
X007901Y000841D02*
X007799Y000841D01*
X007815Y000940D02*
X007885Y000940D01*
X007885Y001137D02*
X007815Y001137D01*
X007815Y001235D02*
X007885Y001235D01*
X007976Y001334D02*
X007724Y001334D01*
X007626Y001432D02*
X008074Y001432D01*
X008310Y001432D02*
X008390Y001432D01*
X008390Y001334D02*
X008310Y001334D01*
X008310Y001235D02*
X008390Y001235D01*
X008390Y001137D02*
X008310Y001137D01*
X008310Y000940D02*
X008390Y000940D01*
X008390Y000841D02*
X008310Y000841D01*
X008310Y000743D02*
X008390Y000743D01*
X008700Y000743D02*
X011131Y000743D01*
X010893Y000841D02*
X008799Y000841D01*
X008815Y000940D02*
X010787Y000940D01*
X010520Y001629D02*
X008530Y001629D01*
X008526Y001625D02*
X008775Y001874D01*
X008775Y002226D01*
X008526Y002475D01*
X008174Y002475D01*
X007925Y002226D01*
X007925Y001874D01*
X008174Y001625D01*
X008526Y001625D01*
X008629Y001728D02*
X010525Y001728D01*
X010566Y001826D02*
X008727Y001826D01*
X008775Y001925D02*
X010607Y001925D01*
X010649Y002023D02*
X008775Y002023D01*
X008775Y002122D02*
X010748Y002122D01*
X010846Y002220D02*
X008775Y002220D01*
X008683Y002319D02*
X011037Y002319D01*
X011663Y002319D02*
X012450Y002319D01*
X012450Y002417D02*
X008584Y002417D01*
X008116Y002417D02*
X007584Y002417D01*
X007526Y002475D02*
X007174Y002475D01*
X006925Y002226D01*
X006925Y001874D01*
X007174Y001625D01*
X007526Y001625D01*
X007775Y001874D01*
X007775Y002226D01*
X007526Y002475D01*
X007683Y002319D02*
X008017Y002319D01*
X007925Y002220D02*
X007775Y002220D01*
X007775Y002122D02*
X007925Y002122D01*
X007925Y002023D02*
X007775Y002023D01*
X007775Y001925D02*
X007925Y001925D01*
X007973Y001826D02*
X007727Y001826D01*
X007629Y001728D02*
X008071Y001728D01*
X008170Y001629D02*
X007530Y001629D01*
X007170Y001629D02*
X006530Y001629D01*
X006526Y001625D02*
X006775Y001874D01*
X006775Y002226D01*
X006526Y002475D01*
X006174Y002475D01*
X005925Y002226D01*
X005925Y001874D01*
X006174Y001625D01*
X006526Y001625D01*
X006629Y001728D02*
X007071Y001728D01*
X006973Y001826D02*
X006727Y001826D01*
X006775Y001925D02*
X006925Y001925D01*
X006925Y002023D02*
X006775Y002023D01*
X006775Y002122D02*
X006925Y002122D01*
X006925Y002220D02*
X006775Y002220D01*
X006683Y002319D02*
X007017Y002319D01*
X007116Y002417D02*
X006584Y002417D01*
X006116Y002417D02*
X005584Y002417D01*
X005526Y002475D02*
X005174Y002475D01*
X004925Y002226D01*
X004925Y001874D01*
X005174Y001625D01*
X005526Y001625D01*
X005775Y001874D01*
X005775Y002226D01*
X005526Y002475D01*
X005683Y002319D02*
X006017Y002319D01*
X005925Y002220D02*
X005775Y002220D01*
X005775Y002122D02*
X005925Y002122D01*
X005925Y002023D02*
X005775Y002023D01*
X005775Y001925D02*
X005925Y001925D01*
X005973Y001826D02*
X005727Y001826D01*
X005629Y001728D02*
X006071Y001728D01*
X006170Y001629D02*
X005530Y001629D01*
X005626Y001432D02*
X006074Y001432D01*
X005976Y001334D02*
X005724Y001334D01*
X005815Y001235D02*
X005885Y001235D01*
X005885Y001137D02*
X005815Y001137D01*
X005815Y000940D02*
X005885Y000940D01*
X005901Y000841D02*
X005799Y000841D01*
X005700Y000743D02*
X006000Y000743D01*
X006098Y000644D02*
X005602Y000644D01*
X005390Y000644D02*
X005310Y000644D01*
X005310Y000743D02*
X005390Y000743D01*
X005390Y000841D02*
X005310Y000841D01*
X005098Y000644D02*
X004602Y000644D01*
X004700Y000743D02*
X005000Y000743D01*
X004901Y000841D02*
X004799Y000841D01*
X004815Y000940D02*
X004885Y000940D01*
X004885Y001137D02*
X004815Y001137D01*
X004815Y001235D02*
X004885Y001235D01*
X004976Y001334D02*
X004724Y001334D01*
X004626Y001432D02*
X005074Y001432D01*
X005170Y001629D02*
X004530Y001629D01*
X004629Y001728D02*
X005071Y001728D01*
X004973Y001826D02*
X004727Y001826D01*
X004775Y001925D02*
X004925Y001925D01*
X004925Y002023D02*
X004775Y002023D01*
X004775Y002122D02*
X004925Y002122D01*
X004925Y002220D02*
X004775Y002220D01*
X004683Y002319D02*
X005017Y002319D01*
X005116Y002417D02*
X004584Y002417D01*
X004116Y002417D02*
X000350Y002417D01*
X000350Y002319D02*
X001137Y002319D01*
X000946Y002220D02*
X000350Y002220D01*
X000350Y002122D02*
X000848Y002122D01*
X000749Y002023D02*
X000350Y002023D01*
X000350Y001925D02*
X000707Y001925D01*
X000666Y001826D02*
X000350Y001826D01*
X000350Y001728D02*
X000625Y001728D01*
X000620Y001629D02*
X000350Y001629D01*
X000350Y001531D02*
X000620Y001531D01*
X000620Y001432D02*
X000350Y001432D01*
X000350Y001334D02*
X000641Y001334D01*
X000682Y001235D02*
X000351Y001235D01*
X000359Y001137D02*
X000723Y001137D01*
X000788Y001038D02*
X000388Y001038D01*
X000640Y000644D02*
X004098Y000644D01*
X004000Y000743D02*
X001669Y000743D01*
X001907Y000841D02*
X003901Y000841D01*
X004310Y000841D02*
X004390Y000841D01*
X004390Y000743D02*
X004310Y000743D01*
X004310Y000644D02*
X004390Y000644D01*
X004390Y001137D02*
X004310Y001137D01*
X004310Y001235D02*
X004390Y001235D01*
X004390Y001334D02*
X004310Y001334D01*
X004310Y001432D02*
X004390Y001432D01*
X004071Y001728D02*
X002275Y001728D01*
X002234Y001826D02*
X003973Y001826D01*
X003925Y001925D02*
X002193Y001925D01*
X002151Y002023D02*
X003925Y002023D01*
X003925Y002122D02*
X002052Y002122D01*
X001954Y002220D02*
X003925Y002220D01*
X004017Y002319D02*
X001763Y002319D01*
X001396Y003526D02*
X001488Y003564D01*
X001575Y003614D01*
X001654Y003675D01*
X001725Y003746D01*
X001786Y003825D01*
X001836Y003912D01*
X001874Y004004D01*
X001900Y004101D01*
X001913Y004200D01*
X001200Y004200D01*
X001200Y004300D01*
X001100Y004300D01*
X001100Y005013D01*
X001100Y005013D01*
X001001Y005000D01*
X000904Y004974D01*
X000812Y004936D01*
X000725Y004886D01*
X000646Y004825D01*
X000575Y004754D01*
X000514Y004675D01*
X000464Y004588D01*
X000426Y004496D01*
X000400Y004399D01*
X000387Y004300D01*
X001100Y004300D01*
X001100Y004200D01*
X000387Y004200D01*
X000400Y004101D01*
X000426Y004004D01*
X000464Y003912D01*
X000514Y003825D01*
X000575Y003746D01*
X000646Y003675D01*
X000725Y003614D01*
X000812Y003564D01*
X000904Y003526D01*
X001001Y003500D01*
X001100Y003487D01*
X001100Y004200D01*
X001200Y004200D01*
X001200Y003487D01*
X001200Y003487D01*
X001299Y003500D01*
X001396Y003526D01*
X001302Y003501D02*
X012450Y003501D01*
X012450Y003599D02*
X001549Y003599D01*
X001677Y003698D02*
X012450Y003698D01*
X012450Y003796D02*
X001764Y003796D01*
X001826Y003895D02*
X012450Y003895D01*
X012450Y003993D02*
X001870Y003993D01*
X001898Y004092D02*
X012450Y004092D01*
X012450Y004190D02*
X001912Y004190D01*
X001913Y004200D02*
X001913Y004200D01*
X001913Y004300D02*
X001913Y004300D01*
X001200Y004300D01*
X001200Y005013D01*
X001200Y005013D01*
X001299Y005000D01*
X001396Y004974D01*
X001488Y004936D01*
X001575Y004886D01*
X001654Y004825D01*
X001725Y004754D01*
X001786Y004675D01*
X001836Y004588D01*
X001874Y004496D01*
X001900Y004399D01*
X001913Y004300D01*
X001902Y004387D02*
X012450Y004387D01*
X012450Y004289D02*
X001200Y004289D01*
X001200Y004387D02*
X001100Y004387D01*
X001100Y004289D02*
X000350Y004289D01*
X000387Y004300D02*
X000387Y004300D01*
X000398Y004387D02*
X000350Y004387D01*
X000350Y004486D02*
X000423Y004486D01*
X000462Y004584D02*
X000350Y004584D01*
X000350Y004683D02*
X000520Y004683D01*
X000601Y004781D02*
X000350Y004781D01*
X000350Y004880D02*
X000716Y004880D01*
X000917Y004978D02*
X000350Y004978D01*
X000350Y005077D02*
X012450Y005077D01*
X012450Y005175D02*
X000350Y005175D01*
X000350Y005274D02*
X012450Y005274D01*
X012450Y005372D02*
X003324Y005372D01*
X003312Y005360D02*
X003540Y005588D01*
X003540Y005720D01*
X003180Y005720D01*
X003180Y005780D01*
X003120Y005780D01*
X003120Y006140D01*
X002988Y006140D01*
X002760Y005912D01*
X002760Y005780D01*
X003120Y005780D01*
X003120Y005720D01*
X002760Y005720D01*
X002760Y005588D01*
X002988Y005360D01*
X003120Y005360D01*
X003120Y005720D01*
X003180Y005720D01*
X003180Y005360D01*
X003312Y005360D01*
X003180Y005372D02*
X003120Y005372D01*
X003120Y005471D02*
X003180Y005471D01*
X003180Y005569D02*
X003120Y005569D01*
X003120Y005668D02*
X003180Y005668D01*
X003180Y005766D02*
X012450Y005766D01*
X012450Y005668D02*
X003540Y005668D01*
X003521Y005569D02*
X012450Y005569D01*
X012450Y005471D02*
X003422Y005471D01*
X003540Y005780D02*
X003180Y005780D01*
X003180Y006140D01*
X003312Y006140D01*
X003540Y005912D01*
X003540Y005780D01*
X003540Y005865D02*
X012450Y005865D01*
X012450Y005963D02*
X003489Y005963D01*
X003390Y006062D02*
X012450Y006062D01*
X012450Y006160D02*
X001873Y006160D01*
X001873Y006106D02*
X001763Y005840D01*
X001560Y005637D01*
X001294Y005527D01*
X001006Y005527D01*
X000740Y005637D01*
X000537Y005840D01*
X000427Y006106D01*
X000427Y006394D01*
X000537Y006660D01*
X000740Y006863D01*
X001006Y006973D01*
X001294Y006973D01*
X001560Y006863D01*
X001763Y006660D01*
X001873Y006394D01*
X001873Y006106D01*
X001855Y006062D02*
X002910Y006062D01*
X002811Y005963D02*
X001814Y005963D01*
X001773Y005865D02*
X002760Y005865D01*
X002760Y005668D02*
X001591Y005668D01*
X001689Y005766D02*
X003120Y005766D01*
X003120Y005865D02*
X003180Y005865D01*
X003180Y005963D02*
X003120Y005963D01*
X003120Y006062D02*
X003180Y006062D01*
X003295Y006400D02*
X003005Y006400D01*
X002800Y006605D01*
X002800Y006895D01*
X003005Y007100D01*
X003295Y007100D01*
X003500Y006895D01*
X003500Y006605D01*
X003295Y006400D01*
X003350Y006456D02*
X012450Y006456D01*
X012450Y006554D02*
X003449Y006554D01*
X003500Y006653D02*
X012450Y006653D01*
X012450Y006751D02*
X003500Y006751D01*
X003500Y006850D02*
X012450Y006850D01*
X012450Y006948D02*
X003447Y006948D01*
X003348Y007047D02*
X012450Y007047D01*
X012450Y007145D02*
X000350Y007145D01*
X000350Y007047D02*
X002952Y007047D01*
X002853Y006948D02*
X001355Y006948D01*
X001574Y006850D02*
X002800Y006850D01*
X002800Y006751D02*
X001672Y006751D01*
X001766Y006653D02*
X002800Y006653D01*
X002851Y006554D02*
X001807Y006554D01*
X001848Y006456D02*
X002950Y006456D01*
X002779Y005569D02*
X001396Y005569D01*
X000904Y005569D02*
X000350Y005569D01*
X000350Y005471D02*
X002878Y005471D01*
X002976Y005372D02*
X000350Y005372D01*
X000350Y005668D02*
X000709Y005668D01*
X000611Y005766D02*
X000350Y005766D01*
X000350Y005865D02*
X000527Y005865D01*
X000486Y005963D02*
X000350Y005963D01*
X000350Y006062D02*
X000445Y006062D01*
X000427Y006160D02*
X000350Y006160D01*
X000350Y006259D02*
X000427Y006259D01*
X000427Y006357D02*
X000350Y006357D01*
X000350Y006456D02*
X000452Y006456D01*
X000493Y006554D02*
X000350Y006554D01*
X000350Y006653D02*
X000534Y006653D01*
X000628Y006751D02*
X000350Y006751D01*
X000350Y006850D02*
X000726Y006850D01*
X000945Y006948D02*
X000350Y006948D01*
X000350Y007244D02*
X012450Y007244D01*
X012450Y007342D02*
X000350Y007342D01*
X000350Y007441D02*
X012450Y007441D01*
X012450Y007539D02*
X004568Y007539D01*
X004535Y007525D02*
X004691Y007590D01*
X004810Y007709D01*
X004875Y007865D01*
X004875Y008035D01*
X004810Y008191D01*
X004691Y008310D01*
X004535Y008375D01*
X004365Y008375D01*
X004209Y008310D01*
X004090Y008191D01*
X004025Y008035D01*
X004025Y007865D01*
X004090Y007709D01*
X004209Y007590D01*
X004365Y007525D01*
X004535Y007525D01*
X004332Y007539D02*
X000350Y007539D01*
X000350Y007638D02*
X004161Y007638D01*
X004079Y007736D02*
X000350Y007736D01*
X000350Y007835D02*
X004038Y007835D01*
X004025Y007933D02*
X000350Y007933D01*
X000350Y008032D02*
X004025Y008032D01*
X004065Y008130D02*
X001639Y008130D01*
X001615Y008120D02*
X001920Y008246D01*
X002154Y008480D01*
X002280Y008785D01*
X002280Y009115D01*
X004027Y009115D01*
X003985Y009157D02*
X004257Y008885D01*
X004420Y008885D01*
X004420Y009320D01*
X003985Y009320D01*
X003985Y009157D01*
X003985Y009214D02*
X002239Y009214D01*
X002198Y009312D02*
X003985Y009312D01*
X003985Y009380D02*
X004420Y009380D01*
X004420Y009815D01*
X004257Y009815D01*
X003985Y009543D01*
X003985Y009380D01*
X003985Y009411D02*
X002158Y009411D01*
X002154Y009420D02*
X001920Y009654D01*
X001615Y009780D01*
X001285Y009780D01*
X000980Y009654D01*
X000746Y009420D01*
X000620Y009115D01*
X000350Y009115D01*
X000350Y009017D02*
X000620Y009017D01*
X000620Y009115D02*
X000620Y008785D01*
X000746Y008480D01*
X000980Y008246D01*
X001285Y008120D01*
X001615Y008120D01*
X001877Y008229D02*
X004127Y008229D01*
X004250Y008327D02*
X002001Y008327D01*
X002099Y008426D02*
X010701Y008426D01*
X010646Y008480D02*
X010880Y008246D01*
X011185Y008120D01*
X011515Y008120D01*
X011820Y008246D01*
X012054Y008480D01*
X012180Y008785D01*
X012180Y009115D01*
X012450Y009115D01*
X012450Y009017D02*
X012180Y009017D01*
X012180Y009115D02*
X012054Y009420D01*
X011820Y009654D01*
X011515Y009780D01*
X011185Y009780D01*
X010880Y009654D01*
X010646Y009420D01*
X010520Y009115D01*
X004873Y009115D01*
X004915Y009157D02*
X004915Y009320D01*
X004480Y009320D01*
X004480Y009380D01*
X004420Y009380D01*
X004420Y009320D01*
X004480Y009320D01*
X004480Y008885D01*
X004643Y008885D01*
X004915Y009157D01*
X004915Y009214D02*
X010561Y009214D01*
X010602Y009312D02*
X004915Y009312D01*
X004915Y009380D02*
X004915Y009543D01*
X004643Y009815D01*
X004480Y009815D01*
X004480Y009380D01*
X004915Y009380D01*
X004915Y009411D02*
X010642Y009411D01*
X010735Y009509D02*
X004915Y009509D01*
X004850Y009608D02*
X010834Y009608D01*
X011007Y009706D02*
X004752Y009706D01*
X004653Y009805D02*
X012224Y009805D01*
X012295Y009706D02*
X011693Y009706D01*
X011866Y009608D02*
X012365Y009608D01*
X012397Y009509D02*
X011965Y009509D01*
X012058Y009411D02*
X012429Y009411D01*
X012445Y009312D02*
X012098Y009312D01*
X012139Y009214D02*
X012450Y009214D01*
X012450Y008918D02*
X012180Y008918D01*
X012180Y008820D02*
X012450Y008820D01*
X012450Y008721D02*
X012153Y008721D01*
X012113Y008623D02*
X012450Y008623D01*
X012450Y008524D02*
X012072Y008524D01*
X011999Y008426D02*
X012450Y008426D01*
X012450Y008327D02*
X011901Y008327D01*
X011777Y008229D02*
X012450Y008229D01*
X012450Y008130D02*
X011539Y008130D01*
X011161Y008130D02*
X004835Y008130D01*
X004875Y008032D02*
X012450Y008032D01*
X012450Y007933D02*
X004875Y007933D01*
X004862Y007835D02*
X012450Y007835D01*
X012450Y007736D02*
X004821Y007736D01*
X004739Y007638D02*
X012450Y007638D01*
X012450Y006357D02*
X001873Y006357D01*
X001873Y006259D02*
X012450Y006259D01*
X012450Y004978D02*
X001383Y004978D01*
X001200Y004978D02*
X001100Y004978D01*
X001100Y004880D02*
X001200Y004880D01*
X001200Y004781D02*
X001100Y004781D01*
X001100Y004683D02*
X001200Y004683D01*
X001200Y004584D02*
X001100Y004584D01*
X001100Y004486D02*
X001200Y004486D01*
X001200Y004190D02*
X001100Y004190D01*
X001100Y004092D02*
X001200Y004092D01*
X001200Y003993D02*
X001100Y003993D01*
X001100Y003895D02*
X001200Y003895D01*
X001200Y003796D02*
X001100Y003796D01*
X001100Y003698D02*
X001200Y003698D01*
X001200Y003599D02*
X001100Y003599D01*
X001100Y003501D02*
X001200Y003501D01*
X001100Y003487D02*
X001100Y003487D01*
X000998Y003501D02*
X000350Y003501D01*
X000350Y003599D02*
X000751Y003599D01*
X000623Y003698D02*
X000350Y003698D01*
X000350Y003796D02*
X000536Y003796D01*
X000474Y003895D02*
X000350Y003895D01*
X000350Y003993D02*
X000430Y003993D01*
X000402Y004092D02*
X000350Y004092D01*
X000350Y004190D02*
X000388Y004190D01*
X000387Y004200D02*
X000387Y004200D01*
X000350Y003402D02*
X012450Y003402D01*
X012450Y003304D02*
X000350Y003304D01*
X000350Y003205D02*
X012450Y003205D01*
X012450Y003107D02*
X000350Y003107D01*
X000350Y003008D02*
X012450Y003008D01*
X012450Y002910D02*
X000350Y002910D01*
X000350Y002811D02*
X012450Y002811D01*
X012450Y002713D02*
X000350Y002713D01*
X000350Y002614D02*
X012450Y002614D01*
X012450Y002516D02*
X000350Y002516D01*
X001877Y004486D02*
X012450Y004486D01*
X012450Y004584D02*
X001838Y004584D01*
X001780Y004683D02*
X012450Y004683D01*
X012450Y004781D02*
X001699Y004781D01*
X001584Y004880D02*
X012450Y004880D01*
X012450Y002220D02*
X011854Y002220D01*
X011952Y002122D02*
X012450Y002122D01*
X012450Y002023D02*
X012051Y002023D01*
X012093Y001925D02*
X012450Y001925D01*
X012450Y001826D02*
X012134Y001826D01*
X012175Y001728D02*
X012450Y001728D01*
X012450Y001629D02*
X012180Y001629D01*
X012180Y001531D02*
X012450Y001531D01*
X012450Y001432D02*
X012180Y001432D01*
X012159Y001334D02*
X012450Y001334D01*
X012449Y001235D02*
X012118Y001235D01*
X012077Y001137D02*
X012441Y001137D01*
X012412Y001038D02*
X012012Y001038D01*
X011913Y000940D02*
X012380Y000940D01*
X012330Y000841D02*
X011807Y000841D01*
X011569Y000743D02*
X012258Y000743D01*
X006390Y000743D02*
X006310Y000743D01*
X006310Y000841D02*
X006390Y000841D01*
X006390Y000644D02*
X006310Y000644D01*
X006310Y001137D02*
X006390Y001137D01*
X006390Y001235D02*
X006310Y001235D01*
X006310Y001334D02*
X006390Y001334D01*
X006390Y001432D02*
X006310Y001432D01*
X005390Y001432D02*
X005310Y001432D01*
X005310Y001334D02*
X005390Y001334D01*
X005390Y001235D02*
X005310Y001235D01*
X005310Y001137D02*
X005390Y001137D01*
X001261Y008130D02*
X000350Y008130D01*
X000350Y008229D02*
X001023Y008229D01*
X000899Y008327D02*
X000350Y008327D01*
X000350Y008426D02*
X000801Y008426D01*
X000728Y008524D02*
X000350Y008524D01*
X000350Y008623D02*
X000687Y008623D01*
X000647Y008721D02*
X000350Y008721D01*
X000350Y008820D02*
X000620Y008820D01*
X000620Y008918D02*
X000350Y008918D01*
X000350Y009214D02*
X000661Y009214D01*
X000702Y009312D02*
X000355Y009312D01*
X000371Y009411D02*
X000742Y009411D01*
X000835Y009509D02*
X000403Y009509D01*
X000435Y009608D02*
X000934Y009608D01*
X001107Y009706D02*
X000505Y009706D01*
X000576Y009805D02*
X004247Y009805D01*
X004148Y009706D02*
X001793Y009706D01*
X001966Y009608D02*
X004050Y009608D01*
X003985Y009509D02*
X002065Y009509D01*
X002154Y009420D02*
X002280Y009115D01*
X002280Y009017D02*
X004126Y009017D01*
X004224Y008918D02*
X002280Y008918D01*
X002280Y008820D02*
X010520Y008820D01*
X010520Y008785D02*
X010646Y008480D01*
X010628Y008524D02*
X002172Y008524D01*
X002213Y008623D02*
X010587Y008623D01*
X010547Y008721D02*
X002253Y008721D01*
X000705Y009903D02*
X012095Y009903D01*
X011894Y010002D02*
X000906Y010002D01*
X004420Y009805D02*
X004480Y009805D01*
X004480Y009706D02*
X004420Y009706D01*
X004420Y009608D02*
X004480Y009608D01*
X004480Y009509D02*
X004420Y009509D01*
X004420Y009411D02*
X004480Y009411D01*
X004480Y009312D02*
X004420Y009312D01*
X004420Y009214D02*
X004480Y009214D01*
X004480Y009115D02*
X004420Y009115D01*
X004420Y009017D02*
X004480Y009017D01*
X004480Y008918D02*
X004420Y008918D01*
X004676Y008918D02*
X010520Y008918D01*
X010520Y009017D02*
X004774Y009017D01*
X004650Y008327D02*
X010799Y008327D01*
X010923Y008229D02*
X004773Y008229D01*
X010520Y008785D02*
X010520Y009115D01*
D15*
X010650Y007050D03*
X010250Y007050D03*
X010250Y006650D03*
X010250Y006250D03*
X010650Y006250D03*
X010650Y006650D03*
X010650Y005850D03*
X010250Y005850D03*
X010250Y005450D03*
X010650Y005450D03*
X010650Y005050D03*
X010250Y005050D03*
X010250Y004650D03*
X010650Y004650D03*
X010650Y004250D03*
X010650Y003850D03*
X010250Y003850D03*
X010250Y004250D03*
X009850Y004250D03*
X009850Y003850D03*
X009450Y003850D03*
X009450Y004250D03*
X009050Y004250D03*
X009050Y003850D03*
X008650Y003850D03*
X008650Y004250D03*
X008250Y004250D03*
X008250Y003850D03*
X008250Y003450D03*
X008650Y003450D03*
X009050Y003450D03*
X009450Y003450D03*
X009850Y003450D03*
X009850Y003050D03*
X009450Y003050D03*
X009050Y003050D03*
X008650Y003050D03*
X008250Y003050D03*
X008250Y004650D03*
X008650Y004650D03*
X009050Y004650D03*
X009450Y004650D03*
X009850Y004650D03*
X009850Y005050D03*
X009450Y005050D03*
X009050Y005050D03*
X008650Y005050D03*
X008250Y005050D03*
X008250Y005450D03*
X008650Y005450D03*
X009050Y005450D03*
X009450Y005450D03*
X009850Y005450D03*
X009850Y005850D03*
X009450Y005850D03*
X009050Y005850D03*
X008650Y005850D03*
X008250Y005850D03*
X008250Y006250D03*
X008250Y006650D03*
X008650Y006650D03*
X008650Y006250D03*
X009050Y006250D03*
X009050Y006650D03*
X009450Y006650D03*
X009450Y006250D03*
X009850Y006250D03*
X009850Y006650D03*
X009850Y007050D03*
X009450Y007050D03*
X009050Y007050D03*
X008650Y007050D03*
X008250Y007050D03*
X010250Y003450D03*
X010650Y003450D03*
X010650Y003050D03*
X010250Y003050D03*
M02*
