%
M48
M72
T01C0.0130
T02C0.0320
T03C0.0360
T04C0.0827
T05C0.1260
%
T01
X8250Y3050
X8650Y3050
X9050Y3050
X9450Y3050
X9850Y3050
X9850Y3450
X9450Y3450
X9050Y3450
X8650Y3450
X8250Y3450
X8250Y3850
X8250Y4250
X8650Y4250
X8650Y3850
X9050Y3850
X9050Y4250
X9450Y4250
X9450Y3850
X9850Y3850
X9850Y4250
X9850Y4650
X9450Y4650
X9050Y4650
X8650Y4650
X8250Y4650
X8250Y5050
X8650Y5050
X9050Y5050
X9450Y5050
X9850Y5050
X9850Y5450
X9450Y5450
X9050Y5450
X8650Y5450
X8250Y5450
X8250Y5850
X8650Y5850
X9050Y5850
X9450Y5850
X9850Y5850
X9850Y6250
X9850Y6650
X9450Y6650
X9450Y6250
X9050Y6250
X9050Y6650
X8650Y6650
X8650Y6250
X8250Y6250
X8250Y6650
X8250Y7050
X8650Y7050
X9050Y7050
X9450Y7050
X9850Y7050
X10250Y7050
X10650Y7050
X10650Y6650
X10650Y6250
X10250Y6250
X10250Y6650
X10250Y5850
X10650Y5850
X10650Y5450
X10250Y5450
X10250Y5050
X10650Y5050
X10650Y4650
X10250Y4650
X10250Y4250
X10250Y3850
X10650Y3850
X10650Y4250
X10650Y3450
X10250Y3450
X10250Y3050
X10650Y3050
T02
X4450Y7950
X3150Y6750
X3150Y5750
X4450Y9350
T03
X4350Y2050
X5350Y2050
X6350Y2050
X7350Y2050
X8350Y2050
X8350Y1050
X7350Y1050
X6350Y1050
X5350Y1050
X4350Y1050
T04
X1150Y4250
X1150Y6250
T05
X1450Y1550
X1450Y8950
X11350Y8950
X11350Y1550
M30
