G75*
G70*
%OFA0B0*%
%FSLAX24Y24*%
%IPPOS*%
%LPD*%
%AMOC8*
5,1,8,0,0,1.08239X$1,22.5*
%
%ADD10C,0.0000*%
D10*
X001150Y000250D02*
X011650Y000250D01*
X011710Y000252D01*
X011771Y000257D01*
X011830Y000266D01*
X011889Y000279D01*
X011948Y000295D01*
X012005Y000315D01*
X012060Y000338D01*
X012115Y000365D01*
X012167Y000394D01*
X012218Y000427D01*
X012267Y000463D01*
X012313Y000501D01*
X012357Y000543D01*
X012399Y000587D01*
X012437Y000633D01*
X012473Y000682D01*
X012506Y000733D01*
X012535Y000785D01*
X012562Y000840D01*
X012585Y000895D01*
X012605Y000952D01*
X012621Y001011D01*
X012634Y001070D01*
X012643Y001129D01*
X012648Y001190D01*
X012650Y001250D01*
X012650Y009250D01*
X012648Y009310D01*
X012643Y009371D01*
X012634Y009430D01*
X012621Y009489D01*
X012605Y009548D01*
X012585Y009605D01*
X012562Y009660D01*
X012535Y009715D01*
X012506Y009767D01*
X012473Y009818D01*
X012437Y009867D01*
X012399Y009913D01*
X012357Y009957D01*
X012313Y009999D01*
X012267Y010037D01*
X012218Y010073D01*
X012167Y010106D01*
X012115Y010135D01*
X012060Y010162D01*
X012005Y010185D01*
X011948Y010205D01*
X011889Y010221D01*
X011830Y010234D01*
X011771Y010243D01*
X011710Y010248D01*
X011650Y010250D01*
X001150Y010250D01*
X001090Y010248D01*
X001029Y010243D01*
X000970Y010234D01*
X000911Y010221D01*
X000852Y010205D01*
X000795Y010185D01*
X000740Y010162D01*
X000685Y010135D01*
X000633Y010106D01*
X000582Y010073D01*
X000533Y010037D01*
X000487Y009999D01*
X000443Y009957D01*
X000401Y009913D01*
X000363Y009867D01*
X000327Y009818D01*
X000294Y009767D01*
X000265Y009715D01*
X000238Y009660D01*
X000215Y009605D01*
X000195Y009548D01*
X000179Y009489D01*
X000166Y009430D01*
X000157Y009371D01*
X000152Y009310D01*
X000150Y009250D01*
X000150Y001250D01*
X000152Y001190D01*
X000157Y001129D01*
X000166Y001070D01*
X000179Y001011D01*
X000195Y000952D01*
X000215Y000895D01*
X000238Y000840D01*
X000265Y000785D01*
X000294Y000733D01*
X000327Y000682D01*
X000363Y000633D01*
X000401Y000587D01*
X000443Y000543D01*
X000487Y000501D01*
X000533Y000463D01*
X000582Y000427D01*
X000633Y000394D01*
X000685Y000365D01*
X000740Y000338D01*
X000795Y000315D01*
X000852Y000295D01*
X000911Y000279D01*
X000970Y000266D01*
X001029Y000257D01*
X001090Y000252D01*
X001150Y000250D01*
X000820Y001550D02*
X000822Y001600D01*
X000828Y001650D01*
X000838Y001699D01*
X000852Y001747D01*
X000869Y001794D01*
X000890Y001839D01*
X000915Y001883D01*
X000943Y001924D01*
X000975Y001963D01*
X001009Y002000D01*
X001046Y002034D01*
X001086Y002064D01*
X001128Y002091D01*
X001172Y002115D01*
X001218Y002136D01*
X001265Y002152D01*
X001313Y002165D01*
X001363Y002174D01*
X001412Y002179D01*
X001463Y002180D01*
X001513Y002177D01*
X001562Y002170D01*
X001611Y002159D01*
X001659Y002144D01*
X001705Y002126D01*
X001750Y002104D01*
X001793Y002078D01*
X001834Y002049D01*
X001873Y002017D01*
X001909Y001982D01*
X001941Y001944D01*
X001971Y001904D01*
X001998Y001861D01*
X002021Y001817D01*
X002040Y001771D01*
X002056Y001723D01*
X002068Y001674D01*
X002076Y001625D01*
X002080Y001575D01*
X002080Y001525D01*
X002076Y001475D01*
X002068Y001426D01*
X002056Y001377D01*
X002040Y001329D01*
X002021Y001283D01*
X001998Y001239D01*
X001971Y001196D01*
X001941Y001156D01*
X001909Y001118D01*
X001873Y001083D01*
X001834Y001051D01*
X001793Y001022D01*
X001750Y000996D01*
X001705Y000974D01*
X001659Y000956D01*
X001611Y000941D01*
X001562Y000930D01*
X001513Y000923D01*
X001463Y000920D01*
X001412Y000921D01*
X001363Y000926D01*
X001313Y000935D01*
X001265Y000948D01*
X001218Y000964D01*
X001172Y000985D01*
X001128Y001009D01*
X001086Y001036D01*
X001046Y001066D01*
X001009Y001100D01*
X000975Y001137D01*
X000943Y001176D01*
X000915Y001217D01*
X000890Y001261D01*
X000869Y001306D01*
X000852Y001353D01*
X000838Y001401D01*
X000828Y001450D01*
X000822Y001500D01*
X000820Y001550D01*
X000820Y008950D02*
X000822Y009000D01*
X000828Y009050D01*
X000838Y009099D01*
X000852Y009147D01*
X000869Y009194D01*
X000890Y009239D01*
X000915Y009283D01*
X000943Y009324D01*
X000975Y009363D01*
X001009Y009400D01*
X001046Y009434D01*
X001086Y009464D01*
X001128Y009491D01*
X001172Y009515D01*
X001218Y009536D01*
X001265Y009552D01*
X001313Y009565D01*
X001363Y009574D01*
X001412Y009579D01*
X001463Y009580D01*
X001513Y009577D01*
X001562Y009570D01*
X001611Y009559D01*
X001659Y009544D01*
X001705Y009526D01*
X001750Y009504D01*
X001793Y009478D01*
X001834Y009449D01*
X001873Y009417D01*
X001909Y009382D01*
X001941Y009344D01*
X001971Y009304D01*
X001998Y009261D01*
X002021Y009217D01*
X002040Y009171D01*
X002056Y009123D01*
X002068Y009074D01*
X002076Y009025D01*
X002080Y008975D01*
X002080Y008925D01*
X002076Y008875D01*
X002068Y008826D01*
X002056Y008777D01*
X002040Y008729D01*
X002021Y008683D01*
X001998Y008639D01*
X001971Y008596D01*
X001941Y008556D01*
X001909Y008518D01*
X001873Y008483D01*
X001834Y008451D01*
X001793Y008422D01*
X001750Y008396D01*
X001705Y008374D01*
X001659Y008356D01*
X001611Y008341D01*
X001562Y008330D01*
X001513Y008323D01*
X001463Y008320D01*
X001412Y008321D01*
X001363Y008326D01*
X001313Y008335D01*
X001265Y008348D01*
X001218Y008364D01*
X001172Y008385D01*
X001128Y008409D01*
X001086Y008436D01*
X001046Y008466D01*
X001009Y008500D01*
X000975Y008537D01*
X000943Y008576D01*
X000915Y008617D01*
X000890Y008661D01*
X000869Y008706D01*
X000852Y008753D01*
X000838Y008801D01*
X000828Y008850D01*
X000822Y008900D01*
X000820Y008950D01*
X010720Y008950D02*
X010722Y009000D01*
X010728Y009050D01*
X010738Y009099D01*
X010752Y009147D01*
X010769Y009194D01*
X010790Y009239D01*
X010815Y009283D01*
X010843Y009324D01*
X010875Y009363D01*
X010909Y009400D01*
X010946Y009434D01*
X010986Y009464D01*
X011028Y009491D01*
X011072Y009515D01*
X011118Y009536D01*
X011165Y009552D01*
X011213Y009565D01*
X011263Y009574D01*
X011312Y009579D01*
X011363Y009580D01*
X011413Y009577D01*
X011462Y009570D01*
X011511Y009559D01*
X011559Y009544D01*
X011605Y009526D01*
X011650Y009504D01*
X011693Y009478D01*
X011734Y009449D01*
X011773Y009417D01*
X011809Y009382D01*
X011841Y009344D01*
X011871Y009304D01*
X011898Y009261D01*
X011921Y009217D01*
X011940Y009171D01*
X011956Y009123D01*
X011968Y009074D01*
X011976Y009025D01*
X011980Y008975D01*
X011980Y008925D01*
X011976Y008875D01*
X011968Y008826D01*
X011956Y008777D01*
X011940Y008729D01*
X011921Y008683D01*
X011898Y008639D01*
X011871Y008596D01*
X011841Y008556D01*
X011809Y008518D01*
X011773Y008483D01*
X011734Y008451D01*
X011693Y008422D01*
X011650Y008396D01*
X011605Y008374D01*
X011559Y008356D01*
X011511Y008341D01*
X011462Y008330D01*
X011413Y008323D01*
X011363Y008320D01*
X011312Y008321D01*
X011263Y008326D01*
X011213Y008335D01*
X011165Y008348D01*
X011118Y008364D01*
X011072Y008385D01*
X011028Y008409D01*
X010986Y008436D01*
X010946Y008466D01*
X010909Y008500D01*
X010875Y008537D01*
X010843Y008576D01*
X010815Y008617D01*
X010790Y008661D01*
X010769Y008706D01*
X010752Y008753D01*
X010738Y008801D01*
X010728Y008850D01*
X010722Y008900D01*
X010720Y008950D01*
X010720Y001550D02*
X010722Y001600D01*
X010728Y001650D01*
X010738Y001699D01*
X010752Y001747D01*
X010769Y001794D01*
X010790Y001839D01*
X010815Y001883D01*
X010843Y001924D01*
X010875Y001963D01*
X010909Y002000D01*
X010946Y002034D01*
X010986Y002064D01*
X011028Y002091D01*
X011072Y002115D01*
X011118Y002136D01*
X011165Y002152D01*
X011213Y002165D01*
X011263Y002174D01*
X011312Y002179D01*
X011363Y002180D01*
X011413Y002177D01*
X011462Y002170D01*
X011511Y002159D01*
X011559Y002144D01*
X011605Y002126D01*
X011650Y002104D01*
X011693Y002078D01*
X011734Y002049D01*
X011773Y002017D01*
X011809Y001982D01*
X011841Y001944D01*
X011871Y001904D01*
X011898Y001861D01*
X011921Y001817D01*
X011940Y001771D01*
X011956Y001723D01*
X011968Y001674D01*
X011976Y001625D01*
X011980Y001575D01*
X011980Y001525D01*
X011976Y001475D01*
X011968Y001426D01*
X011956Y001377D01*
X011940Y001329D01*
X011921Y001283D01*
X011898Y001239D01*
X011871Y001196D01*
X011841Y001156D01*
X011809Y001118D01*
X011773Y001083D01*
X011734Y001051D01*
X011693Y001022D01*
X011650Y000996D01*
X011605Y000974D01*
X011559Y000956D01*
X011511Y000941D01*
X011462Y000930D01*
X011413Y000923D01*
X011363Y000920D01*
X011312Y000921D01*
X011263Y000926D01*
X011213Y000935D01*
X011165Y000948D01*
X011118Y000964D01*
X011072Y000985D01*
X011028Y001009D01*
X010986Y001036D01*
X010946Y001066D01*
X010909Y001100D01*
X010875Y001137D01*
X010843Y001176D01*
X010815Y001217D01*
X010790Y001261D01*
X010769Y001306D01*
X010752Y001353D01*
X010738Y001401D01*
X010728Y001450D01*
X010722Y001500D01*
X010720Y001550D01*
M02*
