G75*
G70*
%OFA0B0*%
%FSLAX24Y24*%
%IPPOS*%
%LPD*%
%AMOC8*
5,1,8,0,0,1.08239X$1,22.5*
%
%ADD10C,0.0080*%
%ADD11C,0.0120*%
%ADD12R,0.0500X0.2400*%
%ADD13R,0.0660X0.0300*%
%ADD14R,0.1000X0.0300*%
D10*
X003940Y003077D02*
X004100Y002917D01*
X004100Y003130D01*
X004260Y003077D02*
X003940Y003077D01*
X003940Y003285D02*
X003940Y003499D01*
X003993Y003499D01*
X004207Y003285D01*
X004260Y003285D01*
X004207Y003653D02*
X004046Y003653D01*
X004207Y003653D02*
X004260Y003707D01*
X004260Y003867D01*
X004046Y003867D01*
X004100Y004022D02*
X004100Y004128D01*
X004260Y004022D02*
X003940Y004022D01*
X003940Y004235D01*
X003400Y005400D02*
X002900Y005400D01*
X002874Y005402D01*
X002848Y005407D01*
X002823Y005415D01*
X002800Y005427D01*
X002778Y005441D01*
X002759Y005459D01*
X002741Y005478D01*
X002727Y005500D01*
X002715Y005523D01*
X002707Y005548D01*
X002702Y005574D01*
X002700Y005600D01*
X002700Y006900D01*
X002702Y006926D01*
X002707Y006952D01*
X002715Y006977D01*
X002727Y007000D01*
X002741Y007022D01*
X002759Y007041D01*
X002778Y007059D01*
X002800Y007073D01*
X002823Y007085D01*
X002848Y007093D01*
X002874Y007098D01*
X002900Y007100D01*
X003400Y007100D01*
X003426Y007098D01*
X003452Y007093D01*
X003477Y007085D01*
X003500Y007073D01*
X003522Y007059D01*
X003541Y007041D01*
X003559Y007022D01*
X003573Y007000D01*
X003585Y006977D01*
X003593Y006952D01*
X003598Y006926D01*
X003600Y006900D01*
X003600Y005600D01*
X003598Y005574D01*
X003593Y005548D01*
X003585Y005523D01*
X003573Y005500D01*
X003559Y005478D01*
X003541Y005459D01*
X003522Y005441D01*
X003500Y005427D01*
X003477Y005415D01*
X003452Y005407D01*
X003426Y005402D01*
X003400Y005400D01*
X003846Y005735D02*
X003740Y005842D01*
X004060Y005842D01*
X004060Y005735D02*
X004060Y005949D01*
X004007Y006103D02*
X003793Y006317D01*
X004007Y006317D01*
X004060Y006264D01*
X004060Y006157D01*
X004007Y006103D01*
X003793Y006103D01*
X003740Y006157D01*
X003740Y006264D01*
X003793Y006317D01*
X003900Y006472D02*
X003900Y006685D01*
X004060Y006632D02*
X003740Y006632D01*
X003900Y006472D01*
X004000Y007300D02*
X004000Y007600D01*
X004150Y007450D02*
X003850Y007450D01*
X002660Y008140D02*
X002660Y008354D01*
X002660Y008247D02*
X002340Y008247D01*
X002446Y008140D01*
X002393Y008508D02*
X002340Y008562D01*
X002340Y008668D01*
X002393Y008722D01*
X002607Y008508D01*
X002660Y008562D01*
X002660Y008668D01*
X002607Y008722D01*
X002393Y008722D01*
X002446Y008877D02*
X002607Y008877D01*
X002660Y008930D01*
X002660Y009090D01*
X002446Y009090D01*
X002500Y009245D02*
X002500Y009352D01*
X002340Y009458D02*
X002340Y009245D01*
X002660Y009245D01*
X002607Y008508D02*
X002393Y008508D01*
X002204Y006883D02*
X002344Y006743D01*
X001924Y006743D01*
X001924Y006883D02*
X001924Y006603D01*
X001924Y006423D02*
X002204Y006143D01*
X002274Y006143D01*
X002344Y006213D01*
X002344Y006353D01*
X002274Y006423D01*
X001924Y006423D02*
X001924Y006143D01*
X002064Y005962D02*
X001924Y005822D01*
X002064Y005682D01*
X002344Y005682D01*
X002344Y005962D02*
X002064Y005962D01*
X002026Y004837D02*
X001956Y004767D01*
X001956Y004627D01*
X002026Y004557D01*
X002166Y004557D01*
X002166Y004697D01*
X002306Y004837D02*
X002026Y004837D01*
X002306Y004837D02*
X002376Y004767D01*
X002376Y004627D01*
X002306Y004557D01*
X002376Y004376D02*
X001956Y004096D01*
X002376Y004096D01*
X002376Y003916D02*
X002376Y003706D01*
X002306Y003636D01*
X002026Y003636D01*
X001956Y003706D01*
X001956Y003916D01*
X002376Y003916D01*
X002376Y004376D02*
X001956Y004376D01*
X004050Y002350D02*
X004050Y002250D01*
X004050Y002350D02*
X004150Y002350D01*
X004550Y002350D02*
X004650Y002350D01*
X004650Y002250D01*
X005050Y002250D02*
X005050Y002350D01*
X005150Y002350D01*
X005550Y002350D02*
X005650Y002350D01*
X005650Y002250D01*
X006050Y002250D02*
X006050Y002350D01*
X006150Y002350D01*
X006550Y002350D02*
X006650Y002350D01*
X006650Y002250D01*
X006650Y001850D02*
X006650Y001750D01*
X006550Y001750D01*
X006150Y001750D02*
X006050Y001750D01*
X006050Y001850D01*
X005650Y001850D02*
X005650Y001750D01*
X005550Y001750D01*
X005150Y001750D02*
X005050Y001750D01*
X005050Y001850D01*
X004650Y001850D02*
X004650Y001750D01*
X004550Y001750D01*
X004150Y001750D02*
X004050Y001750D01*
X004050Y001850D01*
X004050Y001350D02*
X004050Y001250D01*
X004050Y001350D02*
X004150Y001350D01*
X004550Y001350D02*
X004650Y001350D01*
X004650Y001250D01*
X005050Y001250D02*
X005050Y001350D01*
X005150Y001350D01*
X005550Y001350D02*
X005650Y001350D01*
X005650Y001250D01*
X006050Y001250D02*
X006050Y001350D01*
X006150Y001350D01*
X006550Y001350D02*
X006650Y001350D01*
X006650Y001250D01*
X006650Y000850D02*
X006650Y000750D01*
X006550Y000750D01*
X006150Y000750D02*
X006050Y000750D01*
X006050Y000850D01*
X005650Y000850D02*
X005650Y000750D01*
X005550Y000750D01*
X005150Y000750D02*
X005050Y000750D01*
X005050Y000850D01*
X004650Y000850D02*
X004650Y000750D01*
X004550Y000750D01*
X004150Y000750D02*
X004050Y000750D01*
X004050Y000850D01*
X006316Y003044D02*
X006316Y007056D01*
X006290Y007390D02*
X006250Y007470D01*
X006250Y007510D01*
X006290Y007550D01*
X006370Y007550D01*
X006410Y007510D01*
X006410Y007430D01*
X006370Y007390D01*
X006290Y007390D02*
X006170Y007390D01*
X006170Y007550D01*
X006170Y007685D02*
X006410Y007685D01*
X006330Y007685D02*
X006170Y007845D01*
X006250Y007979D02*
X006170Y008059D01*
X006250Y008139D01*
X006410Y008139D01*
X006290Y008139D02*
X006290Y007979D01*
X006250Y007979D02*
X006410Y007979D01*
X006410Y007845D02*
X006290Y007725D01*
X006900Y007950D02*
X006900Y007450D01*
X009600Y007450D01*
X009600Y007950D01*
X010390Y007954D02*
X010550Y007954D01*
X010604Y007954D01*
X010604Y007847D02*
X010390Y007847D01*
X010443Y007740D02*
X010443Y008060D01*
X010550Y008060D02*
X010550Y007740D01*
X010758Y007900D02*
X010972Y007900D01*
X010918Y007740D02*
X010918Y008060D01*
X010758Y007900D01*
X011127Y007740D02*
X011340Y008060D01*
X011495Y008007D02*
X011548Y008060D01*
X011655Y008060D01*
X011708Y008007D01*
X011708Y007954D01*
X011655Y007900D01*
X011708Y007847D01*
X011708Y007793D01*
X011655Y007740D01*
X011548Y007740D01*
X011495Y007793D01*
X011602Y007900D02*
X011655Y007900D01*
X011863Y007954D02*
X011863Y007740D01*
X011970Y007740D02*
X011970Y007900D01*
X012023Y007954D01*
X012077Y007900D01*
X012077Y007740D01*
X012232Y007740D02*
X012232Y007954D01*
X012285Y007954D01*
X012338Y007900D01*
X012392Y007954D01*
X012445Y007900D01*
X012445Y007740D01*
X012338Y007740D02*
X012338Y007900D01*
X011970Y007900D02*
X011917Y007954D01*
X011863Y007954D01*
X009600Y009350D02*
X009600Y009850D01*
X006900Y009850D01*
X006900Y009350D01*
X006410Y009318D02*
X006410Y009158D01*
X006250Y009318D01*
X006210Y009318D01*
X006170Y009278D01*
X006170Y009198D01*
X006210Y009158D01*
X006210Y009023D02*
X006170Y008983D01*
X006170Y008903D01*
X006210Y008863D01*
X006370Y008863D01*
X006410Y008903D01*
X006410Y008983D01*
X006370Y009023D01*
X006410Y008729D02*
X006170Y008729D01*
X006250Y008649D01*
X006170Y008569D01*
X006410Y008569D01*
X006370Y008434D02*
X006410Y008394D01*
X006410Y008314D01*
X006370Y008274D01*
X006290Y008314D02*
X006290Y008394D01*
X006330Y008434D01*
X006370Y008434D01*
X006210Y008434D02*
X006170Y008394D01*
X006170Y008314D01*
X006210Y008274D01*
X006250Y008274D01*
X006290Y008314D01*
X006290Y009453D02*
X006290Y009573D01*
X006330Y009613D01*
X006370Y009613D01*
X006410Y009573D01*
X006410Y009493D01*
X006370Y009453D01*
X006290Y009453D01*
X006210Y009533D01*
X006170Y009613D01*
X006250Y009747D02*
X006170Y009827D01*
X006250Y009907D01*
X006410Y009907D01*
X006290Y009907D02*
X006290Y009747D01*
X006250Y009747D02*
X006410Y009747D01*
X002850Y008650D02*
X002852Y008730D01*
X002858Y008809D01*
X002868Y008888D01*
X002882Y008967D01*
X002899Y009045D01*
X002921Y009122D01*
X002946Y009197D01*
X002976Y009271D01*
X003008Y009344D01*
X003045Y009415D01*
X003085Y009484D01*
X003128Y009551D01*
X003175Y009616D01*
X003224Y009678D01*
X003277Y009738D01*
X003333Y009795D01*
X003391Y009850D01*
X003452Y009901D01*
X003516Y009949D01*
X003582Y009994D01*
X003650Y010036D01*
X003720Y010074D01*
X003792Y010108D01*
X003865Y010139D01*
X003940Y010167D01*
X004017Y010190D01*
X004094Y010210D01*
X004172Y010226D01*
X004251Y010238D01*
X004330Y010246D01*
X004410Y010250D01*
X004490Y010250D01*
X004570Y010246D01*
X004649Y010238D01*
X004728Y010226D01*
X004806Y010210D01*
X004883Y010190D01*
X004960Y010167D01*
X005035Y010139D01*
X005108Y010108D01*
X005180Y010074D01*
X005250Y010036D01*
X005318Y009994D01*
X005384Y009949D01*
X005448Y009901D01*
X005509Y009850D01*
X005567Y009795D01*
X005623Y009738D01*
X005676Y009678D01*
X005725Y009616D01*
X005772Y009551D01*
X005815Y009484D01*
X005855Y009415D01*
X005892Y009344D01*
X005924Y009271D01*
X005954Y009197D01*
X005979Y009122D01*
X006001Y009045D01*
X006018Y008967D01*
X006032Y008888D01*
X006042Y008809D01*
X006048Y008730D01*
X006050Y008650D01*
X006048Y008570D01*
X006042Y008491D01*
X006032Y008412D01*
X006018Y008333D01*
X006001Y008255D01*
X005979Y008178D01*
X005954Y008103D01*
X005924Y008029D01*
X005892Y007956D01*
X005855Y007885D01*
X005815Y007816D01*
X005772Y007749D01*
X005725Y007684D01*
X005676Y007622D01*
X005623Y007562D01*
X005567Y007505D01*
X005509Y007450D01*
X005448Y007399D01*
X005384Y007351D01*
X005318Y007306D01*
X005250Y007264D01*
X005180Y007226D01*
X005108Y007192D01*
X005035Y007161D01*
X004960Y007133D01*
X004883Y007110D01*
X004806Y007090D01*
X004728Y007074D01*
X004649Y007062D01*
X004570Y007054D01*
X004490Y007050D01*
X004410Y007050D01*
X004330Y007054D01*
X004251Y007062D01*
X004172Y007074D01*
X004094Y007090D01*
X004017Y007110D01*
X003940Y007133D01*
X003865Y007161D01*
X003792Y007192D01*
X003720Y007226D01*
X003650Y007264D01*
X003582Y007306D01*
X003516Y007351D01*
X003452Y007399D01*
X003391Y007450D01*
X003333Y007505D01*
X003277Y007562D01*
X003224Y007622D01*
X003175Y007684D01*
X003128Y007749D01*
X003085Y007816D01*
X003045Y007885D01*
X003008Y007956D01*
X002976Y008029D01*
X002946Y008103D01*
X002921Y008178D01*
X002899Y008255D01*
X002882Y008333D01*
X002868Y008412D01*
X002858Y008491D01*
X002852Y008570D01*
X002850Y008650D01*
X007090Y005882D02*
X007090Y005775D01*
X007143Y005722D01*
X007357Y005722D01*
X007143Y005935D01*
X007357Y005935D01*
X007410Y005882D01*
X007410Y005775D01*
X007357Y005722D01*
X007250Y005567D02*
X007250Y005353D01*
X007090Y005514D01*
X007410Y005514D01*
X007090Y005882D02*
X007143Y005935D01*
X007143Y005199D02*
X007090Y005145D01*
X007090Y005038D01*
X007143Y004985D01*
X007196Y004985D01*
X007250Y005038D01*
X007250Y005199D01*
X007357Y005199D02*
X007143Y005199D01*
X007357Y005199D02*
X007410Y005145D01*
X007410Y005038D01*
X007357Y004985D01*
X007410Y004830D02*
X007410Y004617D01*
X007196Y004830D01*
X007143Y004830D01*
X007090Y004777D01*
X007090Y004670D01*
X007143Y004617D01*
X007090Y004462D02*
X007410Y004462D01*
X007196Y004355D02*
X007090Y004462D01*
X007196Y004355D02*
X007090Y004248D01*
X007410Y004248D01*
X007410Y004094D02*
X007410Y003880D01*
X007090Y003880D01*
X007050Y002350D02*
X007050Y002250D01*
X007050Y002350D02*
X007150Y002350D01*
X007550Y002350D02*
X007650Y002350D01*
X007650Y002250D01*
X008050Y002250D02*
X008050Y002350D01*
X008150Y002350D01*
X008550Y002350D02*
X008650Y002350D01*
X008650Y002250D01*
X008890Y002210D02*
X008890Y002000D01*
X009030Y002070D01*
X009100Y002070D01*
X009170Y002000D01*
X009170Y001860D01*
X009100Y001790D01*
X008960Y001790D01*
X008890Y001860D01*
X008650Y001850D02*
X008650Y001750D01*
X008550Y001750D01*
X008150Y001750D02*
X008050Y001750D01*
X008050Y001850D01*
X007650Y001850D02*
X007650Y001750D01*
X007550Y001750D01*
X007150Y001750D02*
X007050Y001750D01*
X007050Y001850D01*
X007050Y001350D02*
X007050Y001250D01*
X007050Y001350D02*
X007150Y001350D01*
X007550Y001350D02*
X007650Y001350D01*
X007650Y001250D01*
X008050Y001250D02*
X008050Y001350D01*
X008150Y001350D01*
X008550Y001350D02*
X008650Y001350D01*
X008650Y001250D01*
X008890Y001140D02*
X008890Y000860D01*
X008960Y000790D01*
X009100Y000790D01*
X009170Y000860D01*
X009170Y001000D01*
X009030Y001000D01*
X008890Y001140D02*
X008960Y001210D01*
X009100Y001210D01*
X009170Y001140D01*
X009350Y001210D02*
X009631Y000790D01*
X009631Y001210D01*
X009811Y001210D02*
X010021Y001210D01*
X010091Y001140D01*
X010091Y000860D01*
X010021Y000790D01*
X009811Y000790D01*
X009811Y001210D01*
X009350Y001210D02*
X009350Y000790D01*
X008650Y000750D02*
X008650Y000850D01*
X008650Y000750D02*
X008550Y000750D01*
X008150Y000750D02*
X008050Y000750D01*
X008050Y000850D01*
X007650Y000850D02*
X007650Y000750D01*
X007550Y000750D01*
X007150Y000750D02*
X007050Y000750D01*
X007050Y000850D01*
X008890Y002210D02*
X009170Y002210D01*
X009350Y002210D02*
X009350Y001930D01*
X009491Y001790D01*
X009631Y001930D01*
X009631Y002210D01*
D11*
X003450Y006120D02*
X002850Y006120D01*
X002850Y006370D02*
X003450Y006370D01*
D12*
X007700Y008650D03*
D13*
X006020Y006050D03*
X006020Y005050D03*
X006020Y004050D03*
D14*
X003150Y003400D03*
M02*
